<svg width="24" height="24" viewBox="0 0 24 24" fill="none" xmlns="http://www.w3.org/2000/svg">
<path d="M16.2277 20.998H5.78967C5.42109 20.9996 5.05595 20.9271 4.71591 20.7848C4.37586 20.6426 4.06782 20.4335 3.81006 20.1699C3.55039 19.9083 3.34513 19.5978 3.20613 19.2563C3.06712 18.9149 2.99714 18.5493 3.00021 18.1806V7.74796C2.99562 7.38096 3.06586 7.01687 3.20664 6.67793C3.34743 6.33899 3.55581 6.03232 3.81905 5.77665C4.07519 5.51687 4.38129 5.31171 4.71888 5.17356C5.06089 5.03049 5.42797 4.95704 5.79867 4.95752H9.7939C9.97289 4.95752 10.1445 5.02865 10.2711 5.15526C10.3977 5.28186 10.4688 5.45358 10.4688 5.63263C10.4688 5.81168 10.3977 5.98339 10.2711 6.11C10.1445 6.23661 9.97289 6.30773 9.7939 6.30773H5.79867C5.60513 6.313 5.41371 6.34947 5.23178 6.41575C4.96664 6.52771 4.74056 6.71567 4.58203 6.95595C4.4235 7.19623 4.33962 7.47807 4.34095 7.76596V18.1986C4.3387 18.392 4.37493 18.5839 4.44754 18.7632C4.52015 18.9425 4.62768 19.1055 4.76387 19.2428C4.90004 19.3779 5.06155 19.4849 5.23912 19.5575C5.41669 19.6301 5.60684 19.6669 5.79867 19.6658H16.2367C16.4283 19.6658 16.6173 19.6298 16.7945 19.5578C16.971 19.4869 17.1304 19.3796 17.2625 19.2428C17.3992 19.1107 17.5065 18.9512 17.5774 18.7747C17.6569 18.5963 17.6968 18.4029 17.6944 18.2076V14.211C17.6944 14.0319 17.7655 13.8602 17.892 13.7336C18.0186 13.607 18.1903 13.5359 18.3692 13.5359C18.5482 13.5359 18.7199 13.607 18.8465 13.7336C18.973 13.8602 19.0441 14.0319 19.0441 14.211V18.2346C19.0457 18.6033 18.9732 18.9686 18.831 19.3087C18.6888 19.6489 18.4797 19.9571 18.2163 20.2149C17.958 20.4743 17.6526 20.682 17.3165 20.827C16.9682 20.953 16.5984 21.0115 16.2277 20.998Z" fill="#556B2F"/>
<path d="M20.8259 6.10979C20.7342 5.87802 20.5929 5.66912 20.412 5.4977L18.4774 3.56239C18.306 3.38141 18.0972 3.24009 17.8655 3.14833C17.5173 3.00158 17.1332 2.96259 16.7627 3.0364C16.3922 3.11021 16.0523 3.29342 15.7869 3.56239L14.2482 5.10163V5.14664L7.28351 12.1047C6.9319 12.4589 6.73458 12.9378 6.73462 13.4369V15.3902C6.73699 15.8932 6.93778 16.375 7.29333 16.7306C7.64888 17.0863 8.13043 17.2872 8.63325 17.2895H10.5859C10.8338 17.2899 11.0793 17.2407 11.308 17.1448C11.5367 17.049 11.7439 16.9085 11.9176 16.7315L18.8823 9.76437L20.43 8.21612C20.6117 8.0451 20.7539 7.83626 20.8439 7.60403C20.9469 7.37317 21.0001 7.12321 21.0001 6.87041C21.0001 6.61762 20.9469 6.36765 20.8439 6.1368L20.8259 6.10979ZM19.5841 7.05494C19.5549 7.12295 19.512 7.18423 19.4582 7.23497L18.3604 8.33314L15.6609 5.63272L16.7677 4.52554C16.874 4.42269 17.0157 4.36467 17.1636 4.36352C17.2349 4.36471 17.3052 4.38 17.3706 4.40853C17.4402 4.43793 17.5001 4.47994 17.5505 4.53455L19.4942 6.46985C19.5432 6.52272 19.5827 6.58362 19.6111 6.64988C19.6245 6.71824 19.6245 6.78854 19.6111 6.85691C19.6145 6.92403 19.6054 6.99119 19.5841 7.05494Z" fill="#556B2F"/>
</svg>
