<svg width="24" height="25" viewBox="0 0 24 25" fill="none" xmlns="http://www.w3.org/2000/svg">
<path d="M18.8359 7.31696C19.0182 7.50446 19.1745 7.75893 19.3047 8.08036C19.4349 8.40179 19.5 8.69643 19.5 8.96429V20.5357C19.5 20.8036 19.4089 21.0312 19.2266 21.2187C19.0443 21.4062 18.8229 21.5 18.5625 21.5H5.4375C5.17708 21.5 4.95573 21.4062 4.77344 21.2187C4.59115 21.0312 4.5 20.8036 4.5 20.5357V4.46429C4.5 4.19643 4.59115 3.96875 4.77344 3.78125C4.95573 3.59375 5.17708 3.5 5.4375 3.5H14.1875C14.4479 3.5 14.7344 3.56696 15.0469 3.70089C15.3594 3.83482 15.6068 3.99554 15.7891 4.18304L18.8359 7.31696ZM14.5 4.86607V8.64286H18.1719C18.1068 8.44866 18.0352 8.31138 17.957 8.23103L14.9004 5.08705C14.8223 5.0067 14.6888 4.93304 14.5 4.86607ZM18.25 20.2143V9.92857H14.1875C13.9271 9.92857 13.7057 9.83482 13.5234 9.64732C13.3411 9.45982 13.25 9.23214 13.25 8.96429V4.78571H5.75V20.2143H18.25ZM8.68945 17.8638V18.9286H11.4336V17.8638H10.7012L11.707 16.2467C11.7396 16.1998 11.7721 16.1445 11.8047 16.0809C11.8372 16.0173 11.8617 15.9721 11.8779 15.9453C11.8942 15.9185 11.9056 15.9051 11.9121 15.9051H11.9316C11.9382 15.9319 11.9544 15.9654 11.9805 16.0056C11.9935 16.0324 12.0081 16.0575 12.0244 16.0809C12.0407 16.1044 12.0602 16.1311 12.083 16.1613C12.1058 16.1914 12.127 16.2199 12.1465 16.2467L13.1914 17.8638H12.4492V18.9286H15.291V17.8638H14.627L12.752 15.1217L14.6562 12.2891H15.3105V11.2143H12.5859V12.2891H13.3086L12.3027 13.8862C12.2767 13.933 12.2441 13.9883 12.2051 14.0519C12.166 14.1155 12.1367 14.1607 12.1172 14.1875L12.0977 14.2176H12.0781C12.0716 14.1908 12.0553 14.1574 12.0293 14.1172C11.9902 14.0435 11.9349 13.9665 11.8633 13.8862L10.8281 12.2891H11.5703V11.2143H8.73828V12.2891H9.40234L11.248 15.0212L9.35352 17.8638H8.68945Z" fill="#556B2F"/>
</svg>
