<svg width="18" height="18" viewBox="0 0 16 16" fill="none" xmlns="http://www.w3.org/2000/svg">
<g id="state=yes">
<path id="Vector" d="M8.14383 5.34387C7.82911 5.34432 7.51699 5.40095 7.22217 5.51109L10.6444 8.93332C10.7559 8.63482 10.8126 8.31863 10.8116 7.99998C10.8085 7.29447 10.5261 6.6189 10.0261 6.12112C9.52615 5.62333 8.84936 5.34387 8.14383 5.34387Z" fill="black"/>
<path id="Vector_2" d="M14.335 7.81723C13.0245 5.39446 10.7261 3.92834 8.1828 3.92834C7.49031 3.92984 6.80247 4.04142 6.14502 4.2589L6.77113 4.8889C7.23231 4.7698 7.70649 4.7084 8.1828 4.70612C10.3722 4.70612 12.3634 5.92723 13.5495 7.98446C13.114 8.74742 12.5372 9.42051 11.85 9.96779L12.4022 10.52C13.1982 9.87831 13.859 9.08526 14.3467 8.18668L14.4478 8.00001L14.335 7.81723Z" fill="black"/>
<path id="Vector_3" d="M2.89411 3.24778L4.62856 4.98222C3.53202 5.68783 2.63595 6.66426 2.02689 7.81722L1.92578 8L2.02689 8.18667C3.33745 10.6094 5.63578 12.0756 8.17911 12.0756C9.17186 12.0758 10.1518 11.8511 11.0452 11.4183L12.9897 13.3628L13.6702 12.7794L3.55911 2.66833L2.89411 3.24778ZM6.12189 6.47556C5.75806 6.98866 5.58753 7.61395 5.64049 8.24072C5.69346 8.86749 5.9665 9.4553 6.41127 9.90007C6.85604 10.3448 7.44385 10.6179 8.07062 10.6708C8.69739 10.7238 9.32268 10.5533 9.83578 10.1894L10.458 10.8117C9.73773 11.1197 8.96248 11.2784 8.17911 11.2783C5.98967 11.2783 3.99856 10.0572 2.81245 8C3.38181 6.99219 4.20156 6.14833 5.19245 5.55L6.12189 6.47556Z" fill="black"/>
</g>
</svg>
