<svg width="18" height="18" viewBox="0 0 16 16" fill="none" xmlns="http://www.w3.org/2000/svg">
<g id="state=no">
<path id="Vector" d="M14.0745 7.81723C12.7639 5.39446 10.4656 3.92834 7.92228 3.92834C5.37895 3.92834 3.07672 5.39446 1.77783 7.81723L1.66895 8.00001L1.77006 8.18668C3.08061 10.6095 5.37895 12.0756 7.92228 12.0756C10.4656 12.0756 12.7678 10.6289 14.0745 8.18668L14.1756 8.00001L14.0745 7.81723ZM7.92228 11.2783C5.73283 11.2783 3.72228 10.0572 2.55561 8.00001C3.72228 5.94279 5.73283 4.72168 7.92228 4.72168C10.1117 4.72168 12.0989 5.94668 13.2851 8.00001C12.0989 10.0572 10.1078 11.2783 7.92228 11.2783Z" fill="black"/>
<path id="Vector_2" d="M8.03497 10.6794C9.50834 10.6794 10.7027 9.48502 10.7027 8.01165C10.7027 6.53828 9.50834 5.34387 8.03497 5.34387C6.56159 5.34387 5.36719 6.53828 5.36719 8.01165C5.36719 9.48502 6.56159 10.6794 8.03497 10.6794Z" fill="black"/>
</g>
</svg>
