<svg width="28" height="28" viewBox="0 0 28 28" fill="none" xmlns="http://www.w3.org/2000/svg">
<path d="M4.97701 18.7368C5.96387 20.7326 7.56478 22.3593 9.54454 23.3778C11.5098 24.3875 13.7509 24.7283 15.9274 24.3485C18.1106 23.9643 20.1108 22.8838 21.629 21.2685C23.1608 19.6375 24.1361 17.563 24.415 15.343C24.6976 13.1178 24.2714 10.8602 23.197 8.89124C22.1324 6.93728 20.4682 5.37701 18.4498 4.44037C16.4451 3.51189 14.1922 3.26284 12.0331 3.73104C9.87471 4.19887 8.10603 5.26288 6.64302 6.94523C6.46685 7.13189 5.78552 7.88557 5.21968 9.02307M8.75004 9.33341L4.53951 10.1734L3.5 5.83338M14.0001 10.5001V15.1668L17.5001 17.5001" stroke="#D97706" stroke-width="2" stroke-linecap="round" stroke-linejoin="round"/>
</svg>
