<svg width="24" height="24" viewBox="0 0 24 24" fill="none" xmlns="http://www.w3.org/2000/svg">
<path fill-rule="evenodd" clip-rule="evenodd" d="M12 3C7.02955 3 3 7.02955 3 12C3 16.9705 7.02955 21 12 21C16.9705 21 21 16.9705 21 12C21 7.02955 16.9705 3 12 3ZM11.5909 7.09091C11.3739 7.09091 11.1658 7.17711 11.0124 7.33055C10.8589 7.48399 10.7727 7.6921 10.7727 7.90909C10.7727 8.12609 10.8589 8.33419 11.0124 8.48763C11.1658 8.64107 11.3739 8.72727 11.5909 8.72727H12C12.217 8.72727 12.4251 8.64107 12.5785 8.48763C12.732 8.33419 12.8182 8.12609 12.8182 7.90909C12.8182 7.6921 12.732 7.48399 12.5785 7.33055C12.4251 7.17711 12.217 7.09091 12 7.09091H11.5909ZM10.3636 10.3636C10.1466 10.3636 9.93853 10.4498 9.78509 10.6033C9.63166 10.7567 9.54545 10.9648 9.54545 11.1818C9.54545 11.3988 9.63166 11.6069 9.78509 11.7604C9.93853 11.9138 10.1466 12 10.3636 12H11.1818V14.4545H10.3636C10.1466 14.4545 9.93853 14.5407 9.78509 14.6942C9.63166 14.8476 9.54545 15.0557 9.54545 15.2727C9.54545 15.4897 9.63166 15.6978 9.78509 15.8513C9.93853 16.0047 10.1466 16.0909 10.3636 16.0909H13.6364C13.8534 16.0909 14.0615 16.0047 14.2149 15.8513C14.3683 15.6978 14.4545 15.4897 14.4545 15.2727C14.4545 15.0557 14.3683 14.8476 14.2149 14.6942C14.0615 14.5407 13.8534 14.4545 13.6364 14.4545H12.8182V11.1818C12.8182 10.9648 12.732 10.7567 12.5785 10.6033C12.4251 10.4498 12.217 10.3636 12 10.3636H10.3636Z" fill="#556B2F"/>
</svg>
