<svg width="40" height="40" viewBox="0 0 40 40" fill="none" xmlns="http://www.w3.org/2000/svg">
<path fill-rule="evenodd" clip-rule="evenodd" d="M15.3121 33.4999C15.3121 33.1021 15.4768 32.7205 15.7698 32.4392C16.0628 32.1579 16.4602 31.9999 16.8746 31.9999H23.1246C23.539 31.9999 23.9364 32.1579 24.2295 32.4392C24.5225 32.7205 24.6871 33.1021 24.6871 33.4999C24.6871 33.8977 24.5225 34.2792 24.2295 34.5605C23.9364 34.8418 23.539 34.9999 23.1246 34.9999H16.8746C16.4602 34.9999 16.0628 34.8418 15.7698 34.5605C15.4768 34.2792 15.3121 33.8977 15.3121 33.4999ZM15.3121 25.1375C15.7265 25.1375 16.124 25.2955 16.417 25.5768C16.71 25.8581 16.8746 26.2396 16.8746 26.6374V27.2344C16.8746 27.7954 17.3481 28.2499 17.9324 28.2499H22.0668C22.3474 28.2499 22.6164 28.1429 22.8148 27.9525C23.0132 27.7621 23.1246 27.5038 23.1246 27.2344V26.7499C23.1246 26.3521 23.2892 25.9706 23.5823 25.6893C23.8753 25.408 24.2727 25.2499 24.6871 25.2499C25.1015 25.2499 25.4989 25.408 25.792 25.6893C26.085 25.9706 26.2496 26.3521 26.2496 26.7499V27.2344C26.2498 27.7618 26.1418 28.284 25.9316 28.7713C25.7215 29.2586 25.4134 29.7013 25.025 30.0742C24.6365 30.4471 24.1753 30.7429 23.6677 30.9446C23.1602 31.1464 22.6162 31.2501 22.0668 31.2499H17.9324C17.3831 31.2501 16.8391 31.1464 16.3315 30.9446C15.8239 30.7429 15.3627 30.4471 14.9743 30.0742C14.5858 29.7013 14.2777 29.2586 14.0676 28.7713C13.8575 28.284 13.7494 27.7618 13.7496 27.2344V26.6374C13.7496 26.2396 13.9143 25.8581 14.2073 25.5768C14.5003 25.2955 14.8977 25.1375 15.3121 25.1375Z" fill="#FDFDF6"/>
<path d="M23.4808 27.2691C23.6948 27.8991 24.4026 28.2501 25.0354 27.9831C27.6661 26.8716 29.8174 24.9238 31.127 22.4677C32.4366 20.0116 32.8245 17.1972 32.2254 14.4987C31.6263 11.8001 30.0769 9.38217 27.8379 7.65207C25.599 5.92198 22.8074 4.98544 19.9333 5.00017C17.0591 5.01491 14.2781 5.98002 12.0585 7.73297C9.83897 9.48591 8.31647 11.9196 7.74744 14.6242C7.17842 17.3287 7.59764 20.1389 8.93449 22.5814C10.2714 25.024 12.4442 26.9496 15.087 28.0341C15.7214 28.2951 16.4261 27.9381 16.6339 27.3051L16.7698 26.8881C16.9761 26.2566 16.6042 25.5891 15.9792 25.3101C14.0116 24.4328 12.414 22.9382 11.4496 21.0726C10.4852 19.2071 10.2116 17.0817 10.6738 15.0469C11.1361 13.012 12.3066 11.189 13.9925 9.87827C15.6784 8.56751 17.7792 7.84719 19.9486 7.83599C22.1181 7.82479 24.2268 8.52338 25.9273 9.81665C27.6278 11.1099 28.8186 12.9207 29.3037 14.9507C29.7887 16.9807 29.5389 19.1087 28.5955 20.9841C27.652 22.8596 26.0712 24.3705 24.1136 25.2681C23.4901 25.5531 23.1261 26.2236 23.3401 26.8551L23.4808 27.2691Z" fill="#FDFDF6"/>
</svg>
