<svg width="40" height="40" viewBox="0 0 40 40" fill="none" xmlns="http://www.w3.org/2000/svg">
<path d="M15.3846 23.4615H24.6154M20 18.8462V28.0769M26.9231 11.9231V7.30769C26.9231 6.69565 26.6799 6.10868 26.2472 5.67591C25.8144 5.24313 25.2274 5 24.6154 5H15.3846C14.7726 5 14.1856 5.24313 13.7528 5.67591C13.3201 6.10868 13.0769 6.69565 13.0769 7.30769V11.9231M32.6923 11.9231H7.30769C6.69565 11.9231 6.10868 12.1662 5.67591 12.599C5.24313 13.0318 5 13.6187 5 14.2308V32.6923C5 33.3043 5.24313 33.8913 5.67591 34.3241C6.10868 34.7569 6.69565 35 7.30769 35H32.6923C33.3043 35 33.8913 34.7569 34.3241 34.3241C34.7569 33.8913 35 33.3043 35 32.6923V14.2308C35 13.6187 34.7569 13.0318 34.3241 12.599C33.8913 12.1662 33.3043 11.9231 32.6923 11.9231Z" stroke="#FDFDF6" stroke-width="2.2" stroke-linecap="round" stroke-linejoin="round"/>
</svg>
