<svg width="40" height="40" viewBox="0 0 40 40" fill="none" xmlns="http://www.w3.org/2000/svg">
<path fill-rule="evenodd" clip-rule="evenodd" d="M21.2353 6.93787C22.2687 5.8829 23.671 5.21015 25.1879 5.04162C26.7048 4.87308 28.2359 5.21991 29.5035 6.01922L29.7707 6.19738L30.25 6.53422C30.9041 6.99407 31.4434 7.58208 31.8304 8.25732C32.2174 8.93256 32.4429 9.67879 32.4911 10.4441L32.5 10.7545V31.0832C32.4996 31.438 32.3547 31.7792 32.0951 32.0372C31.8354 32.2951 31.4805 32.4504 31.1028 32.4712C30.7252 32.492 30.3534 32.3767 30.0633 32.149C29.7732 31.9213 29.5868 31.5983 29.5421 31.246L29.5317 31.0832V10.7545C29.5309 10.4073 29.4532 10.0641 29.3034 9.74665C29.1537 9.42917 28.9353 9.14433 28.662 8.9102L28.4691 8.76127L27.9897 8.42443C27.4425 8.03847 26.7842 7.81577 26.1003 7.78523C25.4163 7.7547 24.7385 7.91776 24.1546 8.25322L23.9276 8.39659L25.0525 9.00624C26.3688 9.71882 27.3436 10.8777 27.776 12.2442C28.2084 13.6107 28.0655 15.0807 27.3767 16.3513L27.2253 16.6116L26.4833 17.817C26.3014 18.112 26.0104 18.3342 25.6654 18.4415C25.3205 18.5487 24.9456 18.5335 24.6118 18.3988L24.4559 18.3264L11.6032 11.3669C11.2882 11.1963 11.0511 10.9231 10.9367 10.5993C10.8223 10.2755 10.8388 9.92354 10.9828 9.61033L11.06 9.46557L11.8021 8.26018C12.5619 7.02569 13.7976 6.11152 15.2547 5.706C16.7117 5.30048 18.2791 5.43451 19.6339 6.08046L19.9115 6.22244L21.2353 6.93787ZM12.835 23.2844C13.1759 23.469 13.4246 23.773 13.5265 24.1295C13.6284 24.4861 13.575 24.866 13.3782 25.1857L12.6362 26.3911C12.5394 26.5507 12.41 26.6907 12.2553 26.8032C12.1006 26.9157 11.9237 26.9983 11.7348 27.0464C11.5459 27.0945 11.3488 27.1071 11.1547 27.0834C10.9606 27.0598 10.7734 27.0003 10.6039 26.9086C10.4344 26.8168 10.2859 26.6944 10.167 26.5486C10.0481 26.4028 9.96115 26.2364 9.91113 26.0589C9.8611 25.8814 9.84899 25.6965 9.87551 25.5146C9.90202 25.3327 9.96664 25.1575 10.0656 24.9992L10.8077 23.7938C11.0045 23.4741 11.3287 23.2409 11.7089 23.1453C12.0891 23.0498 12.4942 23.0998 12.835 23.2844ZM16.1477 23.4709C16.3358 23.161 16.6435 22.9307 17.0073 22.8274C17.3712 22.7241 17.7635 22.7556 18.1032 22.9156C18.443 23.0755 18.7044 23.3517 18.8334 23.687C18.9625 24.0224 18.9494 24.3914 18.7969 24.718L18.7182 24.8628L17.9761 26.0682C17.7864 26.3749 17.4789 26.6022 17.1165 26.7035C16.7542 26.8048 16.3642 26.7726 16.0263 26.6135C15.6884 26.4543 15.428 26.1802 15.2983 25.8471C15.1686 25.5139 15.1794 25.147 15.3284 24.821L15.4056 24.6763L16.1477 23.4709ZM10.4634 18.7857C10.8042 18.9703 11.053 19.2743 11.1548 19.6309C11.2567 19.9875 11.2034 20.3674 11.0066 20.6871L10.2645 21.8925C10.0663 22.2096 9.7424 22.4402 9.3635 22.5342C8.9846 22.6281 8.58147 22.5777 8.24206 22.3939C7.90265 22.2102 7.65454 21.9079 7.55185 21.5532C7.44917 21.1985 7.50025 20.8201 7.69396 20.5006L8.43603 19.2952C8.63285 18.9755 8.95701 18.7422 9.33721 18.6467C9.71741 18.5512 10.1225 18.6012 10.4634 18.7857ZM15.8033 18.4628C16.1442 18.6474 16.3929 18.9514 16.4948 19.308C16.5967 19.6646 16.5433 20.0445 16.3465 20.3642L15.6045 21.5695C15.5077 21.7291 15.3783 21.8692 15.2236 21.9816C15.0689 22.0941 14.892 22.1768 14.7031 22.2249C14.5142 22.273 14.3171 22.2855 14.123 22.2619C13.9289 22.2382 13.7417 22.1788 13.5722 22.087C13.4027 21.9952 13.2542 21.8729 13.1353 21.7271C13.0164 21.5813 12.9295 21.4148 12.8794 21.2374C12.8294 21.0599 12.8173 20.8749 12.8438 20.693C12.8703 20.5112 12.9349 20.336 13.0339 20.1776L13.776 18.9723C13.9728 18.6526 14.297 18.4193 14.6772 18.3238C15.0574 18.2282 15.4625 18.2783 15.8033 18.4628ZM19.116 18.6493C19.3047 18.341 19.6122 18.1121 19.9752 18.0096C20.3382 17.9071 20.7293 17.9388 21.0682 18.0982C21.4071 18.2576 21.6681 18.5325 21.7977 18.8667C21.9273 19.2008 21.9157 19.5688 21.7652 19.8951L21.6865 20.0412L20.9444 21.2466C20.7547 21.5534 20.4472 21.7806 20.0848 21.8819C19.7225 21.9833 19.3325 21.9511 18.9946 21.7919C18.6567 21.6328 18.3963 21.3586 18.2666 21.0255C18.1369 20.6924 18.1477 20.3254 18.2967 19.9995L18.3739 19.8547L19.116 18.6493ZM13.4317 13.9628C13.7725 14.1474 14.0213 14.4514 14.1231 14.808C14.225 15.1645 14.1717 15.5444 13.9749 15.8641L13.2328 17.0695C13.0346 17.3866 12.7107 17.6173 12.3318 17.7112C11.9529 17.8052 11.5498 17.7548 11.2104 17.571C10.871 17.3872 10.6228 17.085 10.5201 16.7303C10.4175 16.3756 10.4685 15.9971 10.6623 15.6776L11.4043 14.4722C11.6011 14.1526 11.9253 13.9193 12.3055 13.8238C12.6857 13.7282 13.0908 13.7782 13.4317 13.9628ZM14.3726 9.65069L24.6548 15.2183C25.0484 14.5789 25.1551 13.8191 24.9513 13.106C24.7476 12.3928 24.2501 11.7848 23.5684 11.4156L18.4273 8.63182C17.7456 8.26268 16.9354 8.16264 16.175 8.35372C15.4146 8.54479 14.7663 9.01133 14.3726 9.65069Z" fill="#FDFDF6"/>
</svg>
