<svg width="28" height="28" viewBox="0 0 28 28" fill="none" xmlns="http://www.w3.org/2000/svg">
<path d="M8.39999 6.6501C8.39999 6.37162 8.51061 6.10455 8.70753 5.90764C8.90444 5.71072 9.17151 5.6001 9.44999 5.6001H24.15C24.4285 5.6001 24.6955 5.71072 24.8925 5.90764C25.0894 6.10455 25.2 6.37162 25.2 6.6501C25.2 6.92857 25.0894 7.19565 24.8925 7.39256C24.6955 7.58947 24.4285 7.7001 24.15 7.7001H9.44999C9.17151 7.7001 8.90444 7.58947 8.70753 7.39256C8.51061 7.19565 8.39999 6.92857 8.39999 6.6501ZM9.79999 20.6501C9.79999 20.3716 9.91061 20.1045 10.1075 19.9076C10.3044 19.7107 10.5715 19.6001 10.85 19.6001H24.15C24.4285 19.6001 24.6955 19.7107 24.8925 19.9076C25.0894 20.1045 25.2 20.3716 25.2 20.6501C25.2 20.9286 25.0894 21.1956 24.8925 21.3926C24.6955 21.5895 24.4285 21.7001 24.15 21.7001H10.85C10.5715 21.7001 10.3044 21.5895 10.1075 21.3926C9.91061 21.1956 9.79999 20.9286 9.79999 20.6501ZM3.84999 12.6001C3.57151 12.6001 3.30444 12.7107 3.10753 12.9076C2.91061 13.1045 2.79999 13.3716 2.79999 13.6501C2.79999 13.9286 2.91061 14.1956 3.10753 14.3926C3.30444 14.5895 3.57151 14.7001 3.84999 14.7001H24.15C24.4285 14.7001 24.6955 14.5895 24.8925 14.3926C25.0894 14.1956 25.2 13.9286 25.2 13.6501C25.2 13.3716 25.0894 13.1045 24.8925 12.9076C24.6955 12.7107 24.4285 12.6001 24.15 12.6001H3.84999Z" fill="#D97706"/>
</svg>
