<svg width="40" height="41" viewBox="0 0 40 41" fill="none" xmlns="http://www.w3.org/2000/svg">
<path d="M15.5 29.5H34.5C34.6326 29.5 34.7597 29.5527 34.8535 29.6465C34.9473 29.7403 35 29.8674 35 30C35 30.1326 34.9473 30.2597 34.8535 30.3535C34.7597 30.4473 34.6326 30.5 34.5 30.5H15.5L15.4023 30.4902C15.3061 30.4711 15.2169 30.4239 15.1465 30.3535C15.0527 30.2597 15 30.1326 15 30C15 29.8674 15.0527 29.7403 15.1465 29.6465C15.2403 29.5527 15.3674 29.5 15.5 29.5ZM5.5 19.5H34.5C34.6326 19.5 34.7597 19.5527 34.8535 19.6465C34.9473 19.7403 35 19.8674 35 20C35 20.1326 34.9473 20.2597 34.8535 20.3535C34.7597 20.4473 34.6326 20.5 34.5 20.5H5.5C5.36739 20.5 5.24025 20.4473 5.14648 20.3535C5.05272 20.2597 5 20.1326 5 20C5 19.8674 5.05272 19.7403 5.14648 19.6465C5.24025 19.5527 5.36739 19.5 5.5 19.5ZM13.5 9.5H34.5C34.6326 9.5 34.7597 9.55272 34.8535 9.64648C34.9473 9.74025 35 9.86739 35 10C35 10.1326 34.9473 10.2597 34.8535 10.3535C34.7597 10.4473 34.6326 10.5 34.5 10.5H13.5L13.4023 10.4902C13.3061 10.4711 13.2169 10.4239 13.1465 10.3535C13.0527 10.2597 13 10.1326 13 10C13 9.86739 13.0527 9.74025 13.1465 9.64648C13.2169 9.57608 13.3061 9.52894 13.4023 9.50977L13.5 9.5Z" stroke="#D97706" stroke-width="2"/>
</svg>
