<svg width="24" height="25" viewBox="0 0 24 25" fill="none" xmlns="http://www.w3.org/2000/svg">
<path d="M6.7002 18.125H7.6462V17.1125H8.0752C8.7572 17.1125 9.32919 16.6063 9.32919 15.92C9.32919 15.2338 8.7792 14.7388 8.0752 14.7388H6.7002V18.1138V18.125ZM7.6462 16.3363V15.5263H7.9762C8.1962 15.5263 8.3832 15.6725 8.3832 15.92C8.3832 16.1675 8.2072 16.325 7.9762 16.325H7.6462V16.3363ZM10.2092 18.125H11.5182C12.6182 18.125 13.3002 17.4613 13.3002 16.415C13.3002 15.4363 12.6182 14.75 11.5182 14.75H10.2092V18.125ZM11.1552 17.3263V15.5375H11.4742C11.8372 15.5375 12.3322 15.7175 12.3322 16.415C12.3322 17.1463 11.8372 17.3263 11.4742 17.3263H11.1552ZM14.4002 18.125H15.3462V16.9213H16.5122V16.145H15.3462V15.5375H16.6772V14.7613H14.4112V18.1363L14.4002 18.125Z" fill="#556B2F"/>
<path d="M17.15 21.5H6.15C5.237 21.5 4.5 20.7462 4.5 19.8125V5.1875C4.5 4.25375 5.237 3.5 6.15 3.5H13.949C14.389 3.5 14.807 3.68 15.115 3.995L18.316 7.26875C18.624 7.58375 18.8 8.01125 18.8 8.46125V19.8125C18.8 20.7462 18.063 21.5 17.15 21.5ZM6.15 4.625C5.842 4.625 5.6 4.8725 5.6 5.1875V19.8125C5.6 20.1275 5.842 20.375 6.15 20.375H17.15C17.458 20.375 17.7 20.1275 17.7 19.8125V8.46125C17.7009 8.38748 17.6867 8.31433 17.6582 8.24652C17.6298 8.17871 17.5878 8.11773 17.535 8.0675L14.334 4.79375C14.2325 4.68777 14.0941 4.62711 13.949 4.625H6.15Z" fill="#556B2F"/>
<path d="M18.1178 9.12501H14.9168C14.0258 9.12501 13.2998 8.38251 13.2998 7.47126V4.19751C13.2998 3.88251 13.5418 3.63501 13.8498 3.63501C14.1578 3.63501 14.3998 3.88251 14.3998 4.19751V7.47126C14.3998 7.76376 14.6308 8.00001 14.9168 8.00001H18.1178C18.4258 8.00001 18.6678 8.24751 18.6678 8.56251C18.6678 8.87751 18.4258 9.12501 18.1178 9.12501Z" fill="#556B2F"/>
</svg>
