<svg width="16" height="16" viewBox="0 0 16 16" fill="none" xmlns="http://www.w3.org/2000/svg">
<g id="icon/phone">
<path id="Vector" d="M10.0005 10.5273L11.0338 9.49401C11.173 9.35656 11.3491 9.26247 11.5407 9.22317C11.7323 9.18386 11.9312 9.20103 12.1133 9.27258L13.3726 9.7754C13.5566 9.85008 13.7143 9.97754 13.826 10.1417C13.9376 10.3059 13.9982 10.4995 14 10.698V13.0045C13.9989 13.1396 13.9705 13.273 13.9165 13.3968C13.8625 13.5206 13.784 13.6322 13.6858 13.7249C13.5875 13.8175 13.4715 13.8894 13.3448 13.936C13.218 13.9827 13.0831 14.0032 12.9482 13.9963C4.12352 13.4474 2.34289 5.97427 2.00614 3.1142C1.99051 2.97375 2.00479 2.83158 2.04805 2.69705C2.09131 2.56251 2.16256 2.43866 2.25712 2.33365C2.35168 2.22863 2.46741 2.14482 2.59668 2.08774C2.72596 2.03066 2.86585 2.00159 3.00717 2.00246H5.23526C5.43408 2.00305 5.62819 2.06311 5.7926 2.17491C5.95702 2.28671 6.08422 2.44514 6.15786 2.62983L6.66068 3.88919C6.73461 4.07051 6.75347 4.2696 6.71491 4.46158C6.67635 4.65356 6.58208 4.82992 6.44387 4.96863L5.41055 6.00195C5.41055 6.00195 6.00563 10.0291 10.0005 10.5273Z" fill="#373737"/>
</g>
</svg>
