<svg width="16" height="14" viewBox="0 0 16 14" fill="none" xmlns="http://www.w3.org/2000/svg">
<path d="M7.17383 0.5C9.94893 0.500171 12.3182 2.36166 13.0859 4.94336L13.4189 6.06348L13.999 5.04883L14.583 4.0293C14.6163 3.97108 14.6677 3.93332 14.7217 3.91895C14.7752 3.90477 14.8327 3.9128 14.8828 3.94336C14.9336 3.97438 14.9752 4.02839 14.9922 4.09668C15.0049 4.14819 15.0017 4.20168 14.9854 4.25L14.9648 4.2959L13.3877 7.05078C13.3549 7.10817 13.3042 7.14541 13.251 7.16016C13.2116 7.17103 13.1701 7.16963 13.1309 7.15625L13.0918 7.13867L10.3613 5.54785C10.336 5.5331 10.3124 5.51295 10.293 5.4873C10.2735 5.46159 10.259 5.43082 10.25 5.39746C10.2411 5.36427 10.2382 5.32948 10.2422 5.29492C10.2463 5.26017 10.2565 5.22651 10.2725 5.19727C10.2884 5.16818 10.3095 5.1441 10.333 5.125C10.3565 5.10595 10.3824 5.09174 10.4092 5.08398C10.436 5.07626 10.464 5.07473 10.4912 5.07812C10.5049 5.07984 10.5188 5.08236 10.5322 5.08691L10.5713 5.10547L11.9951 5.93457L13.0098 6.52637L12.7334 5.38477C12.1255 2.88126 9.88253 1.00018 7.1748 1C3.99291 1 1.45117 3.59538 1.45117 6.75C1.45117 9.90456 3.99284 12.5 7.17383 12.5C7.22816 12.5001 7.28356 12.5224 7.32715 12.5674C7.37139 12.6131 7.39941 12.6785 7.39941 12.75C7.39941 12.8215 7.37139 12.8869 7.32715 12.9326C7.28356 12.9776 7.22816 12.9999 7.17383 13C3.78411 13 1 10.2226 1 6.75C1 3.27736 3.78411 0.5 7.17383 0.5Z" fill="#D97706" stroke="#D97706"/>
</svg>
