<svg width="28" height="28" viewBox="0 0 28 28" fill="none" xmlns="http://www.w3.org/2000/svg">
<g id="icon/socialmedia">
<path id="Vector" d="M10.9841 4.06893C13.2528 3.29006 15.7199 3.31148 17.9748 4.12963C19.2131 4.59322 20.3477 5.29684 21.3134 6.2001C20.9853 6.5512 20.6391 6.87932 20.3045 7.22057C19.6679 7.85604 19.0319 8.48932 18.3964 9.12042C17.7629 8.51459 16.9966 8.06515 16.1586 7.80792C15.0862 7.48412 13.9454 7.46195 12.8613 7.74384C11.7772 8.02572 10.7916 8.60077 10.0128 9.40588C9.333 10.0975 8.81816 10.9337 8.50673 11.8521L5.10571 9.21885C6.32307 6.80477 8.43085 4.95819 10.9841 4.06893Z" fill="#E33629"/>
<path id="Vector_2" d="M4.20343 11.8275C4.38623 10.9215 4.68972 10.0441 5.10578 9.21887L8.50679 11.8586C8.06188 13.1689 8.06188 14.5893 8.50679 15.8995C7.37367 16.7745 6.24 17.6539 5.10578 18.5376C4.06423 16.4644 3.74657 14.1022 4.20343 11.8275Z" fill="#F8BD00"/>
<path id="Vector_3" d="M14.3768 11.9341H24.1418C24.4759 13.7666 24.3855 15.6512 23.8777 17.4433C23.4105 19.0913 22.503 20.5807 21.2527 21.7516C20.1551 20.8952 19.0526 20.0453 17.955 19.1889C18.4992 18.8219 18.9636 18.3488 19.3205 17.7979C19.6774 17.247 19.9195 16.6298 20.0321 15.9831H14.3768C14.3752 14.6346 14.3768 13.2843 14.3768 11.9341Z" fill="#587DBD"/>
<path id="Vector_4" d="M5.104 18.5377C6.23822 17.6627 7.37189 16.7833 8.50502 15.8995C8.94341 17.1861 9.77717 18.3012 10.8872 19.0856C11.5796 19.575 12.3663 19.9147 13.1972 20.0831C14.016 20.2354 14.8558 20.2354 15.6746 20.0831C16.4909 19.9449 17.2694 19.6376 17.9599 19.1808C19.0575 20.0372 20.16 20.887 21.2576 21.7434C20.0565 22.8356 18.5923 23.5972 17.0084 23.9534C15.2601 24.3644 13.4383 24.3446 11.6993 23.8959C10.324 23.5287 9.03933 22.8814 7.92588 21.9945C6.74735 21.0588 5.78479 19.8796 5.104 18.5377Z" fill="#319F43"/>
</g>
</svg>
