<svg width="24" height="24" viewBox="0 0 24 24" fill="none" xmlns="http://www.w3.org/2000/svg">
<path d="M6.94336 4.75C7.09689 4.75012 7.23695 4.80739 7.34473 4.90234L7.41699 4.97266L10.4453 8.00098C10.5592 8.11482 10.623 8.26963 10.623 8.43066C10.623 8.59165 10.5591 8.7465 10.4453 8.86035C10.3316 8.97394 10.1773 9.03797 10.0166 9.03809C9.89585 9.03811 9.77871 9.00153 9.67969 8.93555L9.58691 8.86035L7.97656 7.24902L7.5498 6.82227V19.0713C7.5498 19.2323 7.48591 19.3871 7.37207 19.501C7.25821 19.6148 7.10341 19.6787 6.94238 19.6787C6.78138 19.6787 6.62654 19.6148 6.5127 19.501C6.3989 19.3871 6.33496 19.2323 6.33496 19.0713V6.81055L5.9082 7.2373L4.28613 8.86035C4.22994 8.91645 4.16318 8.96077 4.08984 8.99121C4.01629 9.02166 3.93703 9.03805 3.85742 9.03809C3.77773 9.03807 3.69862 9.0217 3.625 8.99121C3.55143 8.96072 3.48406 8.91664 3.42773 8.86035C3.37138 8.80398 3.3264 8.73673 3.2959 8.66309C3.26541 8.58946 3.25 8.51035 3.25 8.43066L3.26172 8.31152C3.2773 8.23365 3.30844 8.1598 3.35254 8.09375L3.42773 8.00098L6.45801 4.97168L6.45703 4.9707L6.49219 4.93848L6.54199 4.90039L6.5498 4.89355C6.65576 4.80369 6.79331 4.75 6.94336 4.75ZM10.2861 17.6074H20.5713C20.7323 17.6074 20.8871 17.6713 21.001 17.7852C21.1146 17.8989 21.1786 18.0531 21.1787 18.2139C21.1787 18.3748 21.1148 18.5297 21.001 18.6436C20.8871 18.7574 20.7323 18.8213 20.5713 18.8213H10.2861C10.1251 18.8213 9.97031 18.7574 9.85645 18.6436C9.74259 18.5297 9.67871 18.3749 9.67871 18.2139C9.67882 18.053 9.74273 17.8989 9.85645 17.7852C9.97031 17.6713 10.1251 17.6074 10.2861 17.6074ZM10.2861 14.1787H17.1426C17.3036 14.1787 17.4584 14.2426 17.5723 14.3564C17.6861 14.4703 17.75 14.6251 17.75 14.7861C17.7499 14.9469 17.6859 15.1011 17.5723 15.2148C17.4584 15.3287 17.3036 15.3926 17.1426 15.3926H10.2861C10.1251 15.3926 9.97031 15.3287 9.85645 15.2148C9.74273 15.1011 9.67882 14.947 9.67871 14.7861C9.67871 14.6251 9.74259 14.4703 9.85645 14.3564C9.97031 14.2426 10.1251 14.1787 10.2861 14.1787ZM10.2861 10.75H13.7139C13.8749 10.75 14.0297 10.8139 14.1436 10.9277C14.2574 11.0416 14.3213 11.1964 14.3213 11.3574C14.3212 11.5183 14.2573 11.6723 14.1436 11.7861C14.0297 11.9 13.8749 11.9639 13.7139 11.9639H10.2861C10.1251 11.9639 9.97031 11.9 9.85645 11.7861C9.74274 11.6724 9.67878 11.5183 9.67871 11.3574C9.67871 11.1964 9.74258 11.0416 9.85645 10.9277C9.9703 10.8139 10.1251 10.75 10.2861 10.75Z" fill="#3A5A40" stroke="#3A5A40" stroke-width="0.5"/>
</svg>
