<svg width="36" height="37" viewBox="0 0 36 37" fill="none" xmlns="http://www.w3.org/2000/svg">
<rect y="0.5" width="36" height="36" rx="18" fill="#D97706"/>
<path d="M18 8C12.2104 8 7.5 12.7104 7.5 18.5C7.5 24.2896 12.2104 29 18 29C23.7896 29 28.5 24.2896 28.5 18.5C28.5 12.7104 23.7896 8 18 8ZM15.4649 13.8972C16.1044 13.2192 17.0045 12.8462 18 12.8462C18.9955 12.8462 19.8875 13.2217 20.5296 13.9032C21.1803 14.5938 21.4968 15.5216 21.4221 16.5191C21.2727 18.5 19.7381 20.1154 18 20.1154C16.2619 20.1154 14.7243 18.5 14.5779 16.5186C14.5037 15.5131 14.8197 14.5822 15.4649 13.8972ZM18 27.3846C16.8139 27.3854 15.6398 27.148 14.5472 26.6865C13.4546 26.225 12.4658 25.5488 11.6394 24.698C12.1127 24.0231 12.7157 23.4492 13.4133 23.01C14.7001 22.1851 16.3286 21.7308 18 21.7308C19.6714 21.7308 21.2999 22.1851 22.5852 23.01C23.2833 23.449 23.8869 24.0229 24.3606 24.698C23.5343 25.5489 22.5455 26.2252 21.4529 26.6867C20.3603 27.1482 19.1861 27.3855 18 27.3846Z" fill="#FDFDF6"/>
</svg>
