<svg width="28" height="28" viewBox="0 0 28 28" fill="none" xmlns="http://www.w3.org/2000/svg">
<path d="M21.5 15.25H15.25V21.5C15.25 21.8315 15.1183 22.1495 14.8839 22.3839C14.6495 22.6183 14.3315 22.75 14 22.75C13.6685 22.75 13.3505 22.6183 13.1161 22.3839C12.8817 22.1495 12.75 21.8315 12.75 21.5V15.25H6.5C6.16848 15.25 5.85054 15.1183 5.61612 14.8839C5.3817 14.6495 5.25 14.3315 5.25 14C5.25 13.6685 5.3817 13.3505 5.61612 13.1161C5.85054 12.8817 6.16848 12.75 6.5 12.75H12.75V6.5C12.75 6.16848 12.8817 5.85054 13.1161 5.61612C13.3505 5.3817 13.6685 5.25 14 5.25C14.3315 5.25 14.6495 5.3817 14.8839 5.61612C15.1183 5.85054 15.25 6.16848 15.25 6.5V12.75H21.5C21.8315 12.75 22.1495 12.8817 22.3839 13.1161C22.6183 13.3505 22.75 13.6685 22.75 14C22.75 14.3315 22.6183 14.6495 22.3839 14.8839C22.1495 15.1183 21.8315 15.25 21.5 15.25Z" fill="#D97706"/>
</svg>
