<svg width="16" height="17" viewBox="0 0 16 17" fill="none" xmlns="http://www.w3.org/2000/svg">
<path d="M8 8.972L10.164 11.136C10.2262 11.1982 10.3027 11.2316 10.3933 11.236C10.484 11.2404 10.5649 11.2071 10.636 11.136C10.7071 11.0649 10.7427 10.9862 10.7427 10.9C10.7427 10.8138 10.7071 10.7351 10.636 10.664L8.472 8.5L10.636 6.336C10.6982 6.27378 10.7316 6.19733 10.736 6.10667C10.7404 6.016 10.7071 5.93511 10.636 5.864C10.5649 5.79289 10.4862 5.75733 10.4 5.75733C10.3138 5.75733 10.2351 5.79289 10.164 5.864L8 8.028L5.836 5.864C5.77378 5.80178 5.69733 5.76844 5.60667 5.764C5.516 5.75956 5.43511 5.79289 5.364 5.864C5.29289 5.93511 5.25733 6.01378 5.25733 6.1C5.25733 6.18622 5.29289 6.26489 5.364 6.336L7.528 8.5L5.364 10.664C5.30178 10.7262 5.26844 10.8029 5.264 10.894C5.25956 10.9842 5.29289 11.0649 5.364 11.136C5.43511 11.2071 5.51378 11.2427 5.6 11.2427C5.68622 11.2427 5.76489 11.2071 5.836 11.136L8 8.972ZM8.002 14.5C7.17222 14.5 6.39222 14.3427 5.662 14.028C4.93178 13.7129 4.29644 13.2853 3.756 12.7453C3.21556 12.2053 2.78778 11.5707 2.47267 10.8413C2.15756 10.112 2 9.33222 2 8.502C2 7.67178 2.15756 6.89178 2.47267 6.162C2.78733 5.43178 3.21422 4.79644 3.75333 4.256C4.29244 3.71556 4.92733 3.28778 5.658 2.97267C6.38867 2.65756 7.16867 2.5 7.998 2.5C8.82733 2.5 9.60733 2.65756 10.338 2.97267C11.0682 3.28733 11.7036 3.71444 12.244 4.254C12.7844 4.79356 13.2122 5.42844 13.5273 6.15867C13.8424 6.88889 14 7.66867 14 8.498C14 9.32733 13.8427 10.1073 13.528 10.838C13.2133 11.5687 12.7858 12.204 12.2453 12.744C11.7049 13.284 11.0702 13.7118 10.3413 14.0273C9.61244 14.3429 8.83267 14.5004 8.002 14.5Z" fill="#FF1D4E"/>
</svg>
