<svg width="16" height="17" viewBox="0 0 16 17" fill="none" xmlns="http://www.w3.org/2000/svg">
<path fill-rule="evenodd" clip-rule="evenodd" d="M8 2.5C4.68636 2.5 2 5.18636 2 8.5C2 11.8136 4.68636 14.5 8 14.5C11.3136 14.5 14 11.8136 14 8.5C14 5.18636 11.3136 2.5 8 2.5ZM7.72727 5.22727C7.58261 5.22727 7.44387 5.28474 7.34158 5.38703C7.23929 5.48933 7.18182 5.62806 7.18182 5.77273C7.18182 5.91739 7.23929 6.05613 7.34158 6.15842C7.44387 6.26071 7.58261 6.31818 7.72727 6.31818H8C8.14466 6.31818 8.2834 6.26071 8.38569 6.15842C8.48799 6.05613 8.54545 5.91739 8.54545 5.77273C8.54545 5.62806 8.48799 5.48933 8.38569 5.38703C8.2834 5.28474 8.14466 5.22727 8 5.22727H7.72727ZM6.90909 7.40909C6.76443 7.40909 6.62569 7.46656 6.5234 7.56885C6.4211 7.67114 6.36364 7.80988 6.36364 7.95455C6.36364 8.09921 6.4211 8.23795 6.5234 8.34024C6.62569 8.44253 6.76443 8.5 6.90909 8.5H7.45455V10.1364H6.90909C6.76443 10.1364 6.62569 10.1938 6.5234 10.2961C6.4211 10.3984 6.36364 10.5372 6.36364 10.6818C6.36364 10.8265 6.4211 10.9652 6.5234 11.0675C6.62569 11.1698 6.76443 11.2273 6.90909 11.2273H9.09091C9.23557 11.2273 9.37431 11.1698 9.4766 11.0675C9.5789 10.9652 9.63636 10.8265 9.63636 10.6818C9.63636 10.5372 9.5789 10.3984 9.4766 10.2961C9.37431 10.1938 9.23557 10.1364 9.09091 10.1364H8.54545V7.95455C8.54545 7.80988 8.48799 7.67114 8.38569 7.56885C8.2834 7.46656 8.14466 7.40909 8 7.40909H6.90909Z" fill="#0B65BF"/>
</svg>
