<svg width="16" height="17" viewBox="0 0 16 17" fill="none" xmlns="http://www.w3.org/2000/svg">
<path fill-rule="evenodd" clip-rule="evenodd" d="M14 8.5C14 5.1862 11.3138 2.5 8 2.5C4.6862 2.5 2 5.1862 2 8.5C2 11.8138 4.6862 14.5 8 14.5C11.3138 14.5 14 11.8138 14 8.5ZM8 5.5C8.15913 5.5 8.31174 5.56321 8.42426 5.67574C8.53679 5.78826 8.6 5.94087 8.6 6.1V9.1C8.6 9.25913 8.53679 9.41174 8.42426 9.52426C8.31174 9.63679 8.15913 9.7 8 9.7C7.84087 9.7 7.68826 9.63679 7.57574 9.52426C7.46321 9.41174 7.4 9.25913 7.4 9.1V6.1C7.4 5.94087 7.46321 5.78826 7.57574 5.67574C7.68826 5.56321 7.84087 5.5 8 5.5ZM7.4 10.9C7.4 10.7409 7.46321 10.5883 7.57574 10.4757C7.68826 10.3632 7.84087 10.3 8 10.3H8.0048C8.16393 10.3 8.31654 10.3632 8.42906 10.4757C8.54159 10.5883 8.6048 10.7409 8.6048 10.9C8.6048 11.0591 8.54159 11.2117 8.42906 11.3243C8.31654 11.4368 8.16393 11.5 8.0048 11.5H8C7.84087 11.5 7.68826 11.4368 7.57574 11.3243C7.46321 11.2117 7.4 11.0591 7.4 10.9Z" fill="#FF771D"/>
</svg>
