<svg width="150" height="150" viewBox="0 0 150 150" fill="none" xmlns="http://www.w3.org/2000/svg">
<path d="M75 150C116.421 150 150 116.421 150 75C150 33.5786 116.421 0 75 0C33.5786 0 0 33.5786 0 75C0 116.421 33.5786 150 75 150Z" fill="#FDFDF6"/>
<path d="M75.0003 146.057C114.244 146.057 146.057 114.243 146.057 74.9998C146.057 35.7562 114.244 3.94287 75.0003 3.94287C35.7566 3.94287 3.9433 35.7562 3.9433 74.9998C3.9433 114.243 35.7566 146.057 75.0003 146.057Z" fill="#556B2F"/>
<path d="M75.0001 142.897C112.499 142.897 142.897 112.498 142.897 74.9999C142.897 37.5015 112.499 7.10303 75.0001 7.10303C37.5017 7.10303 7.10327 37.5015 7.10327 74.9999C7.10327 112.498 37.5017 142.897 75.0001 142.897Z" fill="#FDFDF6"/>
<path d="M74.9999 120.841C100.317 120.841 120.841 100.318 120.841 75.0003C120.841 49.6829 100.317 29.1592 74.9999 29.1592C49.6826 29.1592 29.1588 49.6829 29.1588 75.0003C29.1588 100.318 49.6826 120.841 74.9999 120.841Z" fill="#556B2F"/>
<path fill-rule="evenodd" clip-rule="evenodd" d="M62.4362 25.4561C61.7684 25.7964 61.119 26.1902 60.4906 26.6365C59.3268 27.4637 58.3082 28.42 57.4391 29.4716C54.1809 32.5412 51.0694 36.3065 45.0974 36.3065C43.4957 36.3065 41.4606 36.4708 39.5389 35.2936C38.2839 34.5248 37.1389 33.1772 36.0986 31.0212C35.248 29.2584 33.2918 28.3176 31.3838 28.7541C29.4758 29.1903 28.1231 30.8876 28.1231 32.8449C28.1231 52.1431 43.7255 59.3573 55.3063 59.3573C62.8782 59.3573 67.8942 58.3948 72.0714 56.5969L73.7412 58.9436C74.1351 59.497 74.1919 60.2228 73.8893 60.8309L73.8889 60.8317C73.14 62.3357 72.7867 63.9689 72.8189 65.5895C69.0138 62.9214 63.8737 61.4771 58.0972 61.4771C47.8177 61.4771 37.0626 69.429 37.0626 83.2396C37.0626 90.4825 40.3906 95.9415 45.7841 101.104C52.4724 107.506 62.6875 113.5 71.8716 123.771C72.668 124.661 73.8057 125.17 74.9998 125.17C76.194 125.17 77.3317 124.661 78.1281 123.771C85.2192 115.84 92.933 110.478 99.1377 105.493C100.334 106.729 101.902 107.561 103.619 107.85C105.742 108.208 107.92 107.708 109.675 106.46C112.577 104.395 116.835 101.365 119.737 99.2996C121.491 98.0515 122.678 96.1576 123.036 94.0346C123.393 91.9116 122.893 89.7332 121.645 87.979L119.951 85.5987C120.12 85.1426 120.248 84.6684 120.329 84.1819C120.674 82.14 120.193 80.0448 118.992 78.3576C116.071 74.2535 110.806 66.8536 107.886 62.7494C106.33 60.5627 103.854 59.4196 101.359 59.4706L98.0022 54.7529C95.8118 51.6747 92.1041 50.0537 88.3572 50.5366H88.3565C87.6825 50.6235 87.0157 50.3317 86.6215 49.7783L84.1337 46.2815C86.4453 41.2739 86.0869 35.201 82.6658 30.3874C78.9078 25.0989 72.4982 22.8006 66.5212 24.0165C65.1811 24.1657 63.8081 24.6124 62.4362 25.4561Z" fill="#FDFDF6"/>
<mask id="mask0_56_1470" style="mask-type:alpha" maskUnits="userSpaceOnUse" x="41" y="65" width="68" height="57">
<path fill-rule="evenodd" clip-rule="evenodd" d="M75.1109 121.078C90.5197 103.805 108.76 98.4614 108.76 83.3571C108.76 72.2577 100.21 65.7969 91.9678 65.7969C83.7261 65.7969 76.8493 69.0596 75.1109 75.4767C73.3725 69.0596 66.4956 65.7969 58.2537 65.7969C50.0121 65.7969 41.4611 72.2577 41.4611 83.3571C41.4611 98.4614 59.702 103.805 75.1109 121.078V121.078Z" fill="#042E77"/>
</mask>
<g mask="url(#mask0_56_1470)">
<path d="M112.666 62.7036H37.357V88.6898H112.666V62.7036Z" fill="#556B2F"/>
<path d="M112.666 88.6899H37.357V122.51H112.666V88.6899Z" fill="#D9CAB3"/>
</g>
<path fill-rule="evenodd" clip-rule="evenodd" d="M74.9997 120.974C83.6239 111.329 93.1331 105.402 99.8522 99.4199C96.2248 94.3221 90.2564 85.9343 86.7177 80.9611C87.7584 79.8274 89.269 78.1822 90.9073 76.398C93.9327 73.1021 94.6758 69.2061 90.7759 64.3896L74.9997 75.3565L75.008 88.6839C75.008 88.6839 65.8655 95.7925 54.5392 103.076C60.6791 107.953 68.1207 113.281 74.9997 120.974V120.974Z" fill="#D9CAB3"/>
<path fill-rule="evenodd" clip-rule="evenodd" d="M89.9093 102.911L91.5556 106.305L93.2688 104.628L89.9093 102.911Z" fill="#3A5A40"/>
<path fill-rule="evenodd" clip-rule="evenodd" d="M74.1777 89.5482L79.0029 92.5233L75.8392 87.8193L74.1777 89.5482Z" fill="#3A5A40"/>
<path fill-rule="evenodd" clip-rule="evenodd" d="M67.8981 114.13C69.7275 112.328 71.3329 110.561 72.6241 108.939C75.2195 105.679 76.5972 103.214 76.5972 103.214C76.5972 103.214 74.7127 105.258 71.6268 107.993C70.1206 109.328 68.3607 110.834 66.3463 112.302L67.8981 114.13V114.13Z" fill="#3A5A40"/>
<path fill-rule="evenodd" clip-rule="evenodd" d="M74.1063 121.773C74.3336 122.027 74.6587 122.173 75 122.173C75.3414 122.173 75.6664 122.027 75.8937 121.773C85.1394 111.433 95.4102 105.384 102.143 98.9386C106.899 94.3867 109.94 89.6255 109.94 83.2395C109.94 71.3626 100.743 64.4741 91.903 64.4741C84.3228 64.4741 77.8854 67.152 75 72.2274C72.1147 67.152 65.6772 64.4741 58.0974 64.4741C49.2571 64.4741 40.0599 71.3626 40.0599 83.2395C40.0599 89.6255 43.1013 94.3867 47.857 98.9386C54.5898 105.384 64.8606 111.433 74.1063 121.773V121.773ZM75 119.191C67.4774 111.048 59.3929 105.579 53.0999 100.369C46.9075 95.242 42.4577 90.4324 42.4577 83.2395C42.4577 72.9097 50.4086 66.8719 58.0974 66.8719C65.7493 66.8719 72.2291 69.7268 73.8431 75.6705C73.9847 76.1928 74.4589 76.5552 75 76.5552C75.5412 76.5552 76.0154 76.1928 76.1569 75.6705C77.7713 69.7268 84.2508 66.8719 91.903 66.8719C99.5915 66.8719 107.542 72.9097 107.542 83.2395C107.542 90.4324 103.093 95.242 96.9002 100.369C90.6071 105.579 82.523 111.048 75 119.191Z" fill="#3A5A40"/>
<path fill-rule="evenodd" clip-rule="evenodd" d="M88.8926 54.6983C86.6823 54.9832 84.4949 54.0268 83.2026 52.2112C81.0543 49.1922 78.0292 44.9404 78.0292 44.9404L71.9867 49.24C71.9867 49.24 75.0121 53.4918 77.1601 56.5107C78.4524 58.3264 78.6388 60.7064 77.6455 62.7017L77.6452 62.702C76.6519 64.6969 76.8383 67.0769 78.1306 68.893C83.3221 76.1894 96.7211 95.0196 101.931 102.341C103.099 103.983 105.378 104.367 107.02 103.199C109.996 101.081 114.549 97.8408 117.526 95.7229C119.168 94.5544 119.552 92.2758 118.383 90.6335C113.174 83.3124 99.7748 64.4823 94.5833 57.1858C93.291 55.3698 91.1036 54.4138 88.8933 54.6983C88.893 54.6983 88.893 54.6983 88.8926 54.6983V54.6983Z" fill="#556B2F"/>
<path fill-rule="evenodd" clip-rule="evenodd" d="M88.7397 53.509C86.9681 53.7374 85.2151 52.9711 84.1798 51.5156C82.0315 48.4967 79.006 44.2452 79.006 44.2452C78.6223 43.7055 77.8738 43.5796 77.334 43.9633L71.2919 48.2629C70.7522 48.6469 70.6262 49.3955 71.0099 49.9348C71.0099 49.9348 74.0353 54.1867 76.1837 57.2056C77.2189 58.6607 77.3684 60.568 76.5724 62.1669C76.5724 62.1672 76.5721 62.1672 76.5721 62.1676C75.3815 64.5588 75.6049 67.4112 77.1538 69.5878C82.3457 76.8842 95.7443 95.7144 100.954 103.036C102.506 105.217 105.534 105.727 107.715 104.175C110.692 102.057 115.245 98.8173 118.221 96.6997C120.403 95.1472 120.913 92.1199 119.36 89.9383C114.151 82.6173 100.752 63.7867 95.5601 56.4907C94.0115 54.3141 91.3897 53.1677 88.74 53.509H88.7397V53.509ZM89.0459 55.8872C89.0463 55.8872 89.0463 55.8872 89.0466 55.8872C90.8178 55.6592 92.5709 56.4255 93.6065 57.8807L117.407 91.3283C118.191 92.4312 117.933 93.9613 116.831 94.7457C113.855 96.8637 109.302 100.103 106.325 102.221C105.222 103.006 103.692 102.748 102.908 101.645L79.1074 68.1978C78.0721 66.7423 77.9226 64.835 78.7186 63.2361C78.7186 63.2361 78.7186 63.2358 78.719 63.2358C79.9095 60.8446 79.6858 57.9918 78.1373 55.8152L73.6589 49.5215L77.7474 46.6122L82.2258 52.906C83.7747 55.0826 86.3966 56.2286 89.0459 55.8872V55.8872Z" fill="#3A5A40"/>
<path fill-rule="evenodd" clip-rule="evenodd" d="M104.541 65.2861C103.344 63.604 101.01 63.2105 99.3274 64.4076C95.2005 67.3443 88.342 72.2245 88.342 72.2245C88.342 72.2245 96.0142 83.0064 98.943 87.1225C99.6441 88.1082 100.779 88.6935 101.989 88.6935C104.176 88.6935 107.677 88.6935 109.502 88.6935C110.279 88.6935 111.036 88.4517 111.669 88.001C112.439 87.4534 113.558 86.6574 114.621 85.9008C116.304 84.7038 116.697 82.3694 115.5 80.6872C112.59 76.5979 107.451 69.3754 104.541 65.2861V65.2861Z" fill="#D9CAB3"/>
<path fill-rule="evenodd" clip-rule="evenodd" d="M105.517 64.5909C103.937 62.3691 100.854 61.8496 98.6322 63.4304C94.5053 66.3671 87.6465 71.2473 87.6465 71.2473C87.1071 71.6314 86.9808 72.38 87.3649 72.9193C87.3649 72.9193 95.037 83.7016 97.9658 87.8177C98.8921 89.1194 100.391 89.8926 101.988 89.8926C104.176 89.8926 107.677 89.8926 109.501 89.8926C110.528 89.8926 111.528 89.5726 112.364 88.9778C113.134 88.4302 114.253 87.6342 115.316 86.8773C117.538 85.2965 118.057 82.2139 116.476 79.9921L105.517 64.5909V64.5909ZM103.564 65.9809L114.523 81.3821C115.336 82.5248 115.069 84.1107 113.926 84.9237L110.974 87.0242C110.544 87.3301 110.029 87.4944 109.501 87.4944H101.989C101.167 87.4944 100.396 87.097 99.9194 86.4273L90.0138 72.506L100.022 65.3844C101.165 64.571 102.75 64.8381 103.564 65.9809V65.9809Z" fill="#3A5A40"/>
<path fill-rule="evenodd" clip-rule="evenodd" d="M54.5392 103.076C65.8656 95.7925 75.0081 88.6839 75.0081 88.6839L74.9998 75.3565L90.7759 64.3896C94.6759 69.2061 93.9328 73.1021 90.9073 76.398C87.8815 79.6934 84.4565 83.424 84.4565 83.424" fill="#D9CAB3"/>
<path fill-rule="evenodd" clip-rule="evenodd" d="M55.1878 104.085C59.0016 101.65 62.57 99.2341 65.6291 97.0962C71.7161 92.8423 75.7906 89.6901 75.7906 89.6901C76.1015 89.4483 76.2832 89.0769 76.2829 88.6831L76.2984 76.0359L90.4967 66.1575C91.5718 67.6963 92.1082 69.117 92.1752 70.4564C92.2701 72.347 91.4205 74.0309 90.0204 75.5834C89.6106 76.062 89.182 76.5391 88.7791 77.0335C88.3686 77.5374 87.9755 78.0416 87.6063 78.5462C86.9826 79.3998 86.4349 80.2016 85.9673 80.9259C85.0069 82.4125 84.4567 83.4239 84.4567 83.4239C84.4567 83.4239 85.4174 82.7897 86.8168 81.706C87.4988 81.1782 88.251 80.5643 89.0481 79.87C89.5194 79.4591 89.9885 79.0244 90.4555 78.5723C90.9137 78.1289 91.3524 77.6612 91.7944 77.2123C93.7078 75.165 94.793 72.8823 94.6993 70.3463C94.6233 68.2885 93.7516 66.0333 91.7796 63.5769C91.3539 63.051 90.5945 62.9431 90.0388 63.3293L74.2587 74.2897C73.909 74.5326 73.7005 74.9315 73.7009 75.3572L73.7324 88.0598C72.4861 89.0187 68.9698 91.6944 64.2032 95.0688C61.1814 97.2077 57.6583 99.6279 53.8908 102.068L55.1878 104.085V104.085Z" fill="#3A5A40"/>
<path d="M43.993 115.646L46.7531 117.903L42.3877 123.24C41.9547 123.77 41.4635 124.202 40.914 124.537C40.3646 124.873 39.7698 125.072 39.1298 125.137C38.4895 125.201 37.9179 125.146 37.4144 124.972C36.714 124.732 35.9871 124.304 35.2339 123.688C34.7984 123.332 34.3481 122.912 33.883 122.43C33.4178 121.948 33.0866 121.474 32.8886 121.01C32.6906 120.546 32.5849 120.03 32.5708 119.461C32.557 118.892 32.6417 118.388 32.8256 117.947C33.121 117.237 33.4482 116.663 33.808 116.223L38.1731 110.886L40.9336 113.143L36.4631 118.609C36.0635 119.097 35.8869 119.59 35.9328 120.086C35.9788 120.582 36.242 121.027 36.7223 121.42C37.1987 121.809 37.683 121.979 38.1749 121.93C38.6672 121.881 39.1165 121.608 39.5226 121.111L43.993 115.646V115.646Z" fill="#556B2F"/>
<path d="M48.8269 119.27L52.1017 120.7L50.3519 124.705L55.5358 122.2L59.8879 124.102L54.2809 126.413L55.4312 134.776L51.3973 133.014L51.0679 127.678L48.6025 128.71L47.4717 131.298L44.1968 129.868L48.8269 119.27V119.27Z" fill="#556B2F"/>
<path d="M59.5336 135.914L61.3319 124.489L67.2159 125.416C68.3069 125.587 69.126 125.812 69.6733 126.09C70.2207 126.368 70.6308 126.788 70.9044 127.35C71.1781 127.912 71.2577 128.557 71.143 129.284C71.0434 129.918 70.8223 130.443 70.4795 130.861C70.137 131.278 69.707 131.592 69.189 131.804C68.8592 131.938 68.4223 132.024 67.879 132.061C68.2775 132.267 68.5621 132.456 68.7322 132.626C68.8473 132.74 69.0044 132.97 69.2028 133.315C69.4011 133.661 69.5289 133.923 69.5861 134.102L70.7712 137.683L66.7811 137.055L65.4451 133.267C65.2771 132.777 65.1102 132.45 64.9444 132.286C64.7178 132.069 64.4431 131.935 64.1213 131.885L63.8093 131.835L63.0795 136.472L59.5336 135.914ZM64.1492 129.677L65.6376 129.911C65.7987 129.936 66.1187 129.933 66.5976 129.902C66.8387 129.892 67.0483 129.803 67.2267 129.634C67.4048 129.465 67.5138 129.256 67.5529 129.006C67.6111 128.638 67.5387 128.336 67.336 128.102C67.1333 127.868 66.7098 127.7 66.0655 127.598L64.5148 127.354L64.1492 129.677V129.677Z" fill="#556B2F"/>
<path d="M81.5996 135.336L77.54 135.641L77.1244 137.587L73.4818 137.859L76.9518 126.001L80.838 125.71L86.0374 136.918L82.3087 137.197L81.5996 135.336V135.336ZM80.6649 132.899L79.0798 128.848L78.1242 133.089L80.6649 132.899V132.899Z" fill="#556B2F"/>
<path d="M86.4272 124.757L89.8899 123.842L92.8441 135.024L89.3814 135.939L86.4272 124.757V124.757Z" fill="#556B2F"/>
<path d="M92.4619 123.274L95.4635 121.815L102.176 125.667L99.3801 119.912L102.41 118.44L107.465 128.842L104.435 130.315L97.7635 126.495L100.539 132.207L97.5162 133.676L92.4619 123.274V123.274Z" fill="#556B2F"/>
<path d="M104.404 117.044L111.726 110.87L113.318 112.758L108.734 116.623L109.919 118.028L114.171 114.443L115.692 116.247L111.439 119.832L112.909 121.575L117.626 117.598L119.314 119.6L111.859 125.886L104.404 117.044V117.044Z" fill="#556B2F"/>
<path d="M16.3642 51.6757L17.7629 48.3784L28.4102 52.8945L27.0115 56.1917L16.3642 51.6757V51.6757Z" fill="#556B2F"/>
<path d="M28.8195 43.9299L30.7949 41.1543C31.2705 41.4446 31.6915 41.593 32.0589 41.5995C32.6543 41.6082 33.1673 41.3472 33.5977 40.8158C33.9191 40.4195 34.0737 40.0387 34.0614 39.6734C34.0494 39.3085 33.9209 39.0266 33.6755 38.8278C33.4427 38.6389 33.1517 38.5723 32.802 38.6277C32.4527 38.6827 31.8949 39.0161 31.1286 39.6271C29.8682 40.6229 28.8007 41.1966 27.9265 41.3479C27.0495 41.5032 26.2593 41.2962 25.5563 40.7264C25.0948 40.3525 24.7668 39.8649 24.5732 39.2647C24.3795 38.6642 24.3828 38 24.5833 37.2724C24.7838 36.5448 25.2635 35.713 26.0218 34.7773C26.9524 33.6291 27.8751 32.9268 28.7906 32.6702C29.706 32.4136 30.6761 32.6054 31.7002 33.2461L29.7324 35.9874C29.2716 35.7289 28.859 35.6366 28.4948 35.7105C28.1303 35.7839 27.7893 36.0171 27.4715 36.4091C27.2098 36.732 27.0813 37.0306 27.0857 37.305C27.09 37.5794 27.1903 37.7958 27.3865 37.9547C27.5294 38.0709 27.713 38.1079 27.9363 38.0655C28.1611 38.0308 28.5231 37.8096 29.0226 37.4024C30.2675 36.4008 31.2365 35.7459 31.9297 35.4375C32.6229 35.1295 33.2646 35.0165 33.8547 35.0987C34.4447 35.1809 34.9848 35.4209 35.4753 35.818C36.0512 36.2849 36.4533 36.8749 36.6814 37.5877C36.9091 38.3004 36.917 39.0447 36.7045 39.8204C36.4924 40.5961 36.0334 41.4189 35.3279 42.2894C34.0896 43.8174 32.9378 44.6372 31.8725 44.7487C30.8072 44.8602 29.7896 44.5873 28.8195 43.9299V43.9299Z" fill="#556B2F"/>
<path d="M31.979 28.3531L40.5322 21.6558L42.2929 23.9044L39.4231 26.1515L44.7927 33.0089L41.9787 35.2123L36.6094 28.3546L33.7397 30.6017L31.979 28.3531V28.3531Z" fill="#556B2F"/>
<path d="M53.748 25.6808L50.0797 27.4458L50.403 29.4089L47.1115 30.9929L46.0136 18.6863L49.5252 16.9966L58.4574 25.5331L55.0877 27.1548L53.748 25.6808V25.6808ZM51.9884 23.7522L49.034 20.5599L49.6921 24.857L51.9884 23.7522V23.7522Z" fill="#556B2F"/>
<path d="M57.4158 13.8915L60.6902 13.2486L66.196 18.6881L64.9634 12.4099L68.269 11.7612L70.4966 23.11L67.191 23.7587L61.7179 18.3612L62.941 24.593L59.6434 25.2403L57.4158 13.8915V13.8915Z" fill="#556B2F"/>
<path d="M73.6922 11.4395L78.9908 11.7736C80.0355 11.8394 80.8702 12.0345 81.4954 12.3585C82.1205 12.6825 82.6266 13.1227 83.0128 13.6794C83.3994 14.2361 83.6651 14.8721 83.8095 15.5874C83.9539 16.3026 84.0017 17.0538 83.9518 17.8411C83.8739 19.0747 83.6734 20.0224 83.3498 20.6844C83.0258 21.3465 82.6005 21.8913 82.0727 22.3191C81.545 22.747 80.9904 23.0192 80.4087 23.1354C79.6134 23.2957 78.8982 23.3562 78.2629 23.316L72.9642 22.9819L73.6922 11.4395V11.4395ZM77.0941 14.2785L76.6962 20.5849L77.5701 20.6399C78.3154 20.6869 78.8507 20.6377 79.1762 20.4922C79.5016 20.347 79.7666 20.0738 79.9711 19.673C80.1752 19.2723 80.3066 18.6099 80.3649 17.6861C80.442 16.463 80.2954 15.6134 79.9251 15.1367C79.5544 14.66 78.9076 14.3928 77.9838 14.3346L77.0941 14.2785Z" fill="#556B2F"/>
<path d="M94.6923 14.2524L97.755 15.7105L96.0819 22.0698L100.469 17.0024L103.525 18.4572L102.364 25.0608L106.246 19.7527L109.295 21.2039L102.022 30.5513L98.8598 29.0455L100.159 21.5995L95.2056 27.3058L92.043 25.8003L94.6923 14.2524V14.2524Z" fill="#556B2F"/>
<path d="M112.239 23.8306L115.063 26.0332L107.95 35.1526L105.126 32.9496L112.239 23.8306V23.8306Z" fill="#556B2F"/>
<path d="M118.04 28.3726L125.323 36.4328L123.204 38.3476L120.761 35.6433L114.299 41.482L111.903 38.8305L118.365 32.9914L115.921 30.2871L118.04 28.3726V28.3726Z" fill="#556B2F"/>
<path d="M127.922 40.105L129.605 43.2578L126.035 45.1636L127.873 48.6086L131.444 46.7031L133.134 49.8697L122.931 55.3154L121.241 52.1488L125.368 49.9461L123.529 46.5008L119.402 48.7038L117.719 45.551L127.922 40.105Z" fill="#556B2F"/>
<path fill-rule="evenodd" clip-rule="evenodd" d="M67.12 28.1823C71.5876 27.1728 76.4283 28.8542 79.2456 32.8182C82.7543 37.7556 81.8863 44.4931 77.4245 48.4L76.4845 49.142C71.1062 53.1303 66.0927 55.161 55.3065 55.161C45.5352 55.161 32.3193 49.1276 32.3193 32.845C36.0405 40.5562 41.3554 40.503 45.0976 40.503C52.5218 40.503 56.4985 36.0688 60.5613 32.2998C61.2191 31.4601 62.01 30.7053 62.9218 30.0574C63.4069 29.7128 63.9093 29.4102 64.4313 29.1622L64.5174 29.1025C65.3938 28.5425 66.2651 28.2475 67.12 28.1823V28.1823Z" fill="#D9CAB3"/>
<path fill-rule="evenodd" clip-rule="evenodd" d="M67.46 36.4436C63.37 39.4748 64.1371 46.428 54.5392 46.428C58.3563 50.2451 68.2694 52.6704 76.0314 47.4883C79.771 44.9917 71.5501 33.4123 67.46 36.4436Z" fill="#D9CAB3"/>
<path fill-rule="evenodd" clip-rule="evenodd" d="M67.4606 36.4436C70.608 34.2069 74.9793 34.9461 77.2163 38.0935C79.453 41.2413 78.7138 45.6125 75.566 47.8492C72.4186 50.0859 68.0474 49.3467 65.8107 46.1993C63.5736 43.0519 64.3132 38.6803 67.4606 36.4436Z" fill="#E1D8C0"/>
</svg>
