<svg width="65" height="69" viewBox="0 0 65 69" fill="none" xmlns="http://www.w3.org/2000/svg">
<path fill-rule="evenodd" clip-rule="evenodd" d="M23.6242 1.97075C23.179 2.19759 22.746 2.46015 22.3271 2.75769C21.5513 3.30911 20.8722 3.94668 20.2928 4.64771C18.1207 6.6941 16.0463 9.20431 12.065 9.20431C10.9971 9.20431 9.64045 9.31387 8.35928 8.5291C7.52263 8.01653 6.75933 7.1181 6.06578 5.6808C5.49867 4.50557 4.19458 3.87838 2.92259 4.16941C1.65059 4.4602 0.748779 5.59175 0.748779 6.89657C0.748779 19.762 11.1504 24.5715 18.8709 24.5715C23.9189 24.5715 27.2628 23.9299 30.0477 22.7312L31.1609 24.2957C31.4234 24.6647 31.4613 25.1485 31.2596 25.554L31.2593 25.5544C30.76 26.5571 30.5245 27.646 30.546 28.7264C28.0092 26.9476 24.5825 25.9847 20.7315 25.9847C13.8785 25.9847 6.70841 31.286 6.70841 40.4931C6.70841 45.3217 8.92711 48.961 12.5228 52.4027C16.9816 56.6707 23.7917 60.6665 29.9144 67.5139C30.4453 68.1073 31.2038 68.4466 31.9999 68.4466C32.796 68.4466 33.5545 68.1073 34.0854 67.5139C38.8129 62.2268 43.9554 58.6519 48.0919 55.3287C48.8897 56.1528 49.9346 56.7074 51.0794 56.9002C52.4947 57.1389 53.947 56.8053 55.1164 55.973C57.0511 54.5965 59.89 52.5765 61.8246 51.1997C62.9941 50.3677 63.7851 49.1051 64.0238 47.6897C64.2622 46.2744 63.9287 44.8221 63.0966 43.6527L61.9675 42.0658C62.0802 41.7617 62.1651 41.4456 62.2197 41.1213C62.4492 39.76 62.1285 38.3632 61.328 37.2384C59.381 34.5023 55.8708 29.569 53.9241 26.833C52.8866 25.3751 51.236 24.6131 49.5726 24.6471L47.3348 21.502C45.8746 19.4498 43.4028 18.3692 40.9049 18.6911H40.9044C40.455 18.749 40.0105 18.5545 39.7477 18.1855L38.0892 15.8544C39.6302 12.5159 39.3913 8.46732 37.1106 5.25825C34.6052 1.73257 30.3322 0.20043 26.3475 1.01102C25.4541 1.11045 24.5388 1.40823 23.6242 1.97075Z" fill="#FDFDF6"/>
<mask id="mask0_76_67" style="mask-type:alpha" maskUnits="userSpaceOnUse" x="9" y="28" width="46" height="38">
<path fill-rule="evenodd" clip-rule="evenodd" d="M32.0739 65.7191C42.3465 54.2035 54.5069 50.6411 54.5069 40.5716C54.5069 33.172 48.8065 28.8647 43.3118 28.8647C37.8174 28.8647 33.2329 31.0399 32.0739 35.318C30.915 31.0399 26.3304 28.8647 20.8358 28.8647C15.3414 28.8647 9.64075 33.172 9.64075 40.5716C9.64075 50.6411 21.8014 54.2035 32.0739 65.7191V65.7191Z" fill="#042E77"/>
</mask>
<g mask="url(#mask0_76_67)">
<path d="M57.1108 26.8027H6.90466V44.1268H57.1108V26.8027Z" fill="#556B2F"/>
<path d="M57.1108 44.127H6.90466V66.6735H57.1108V44.127Z" fill="#D9CAB3"/>
</g>
<path fill-rule="evenodd" clip-rule="evenodd" d="M31.9999 65.6491C37.7493 59.2192 44.0888 55.268 48.5681 51.28C46.1499 47.8815 42.171 42.2896 39.8119 38.9741C40.5056 38.2183 41.5127 37.1215 42.6049 35.9321C44.6218 33.7348 45.1173 31.1375 42.5173 27.9265L31.9999 35.2378L32.0054 44.1227C32.0054 44.1227 25.9104 48.8617 18.3595 53.7176C22.4528 56.9689 27.4138 60.5206 31.9999 65.6491V65.6491Z" fill="#D9CAB3"/>
<path fill-rule="evenodd" clip-rule="evenodd" d="M41.9396 53.6072L43.0371 55.8703L44.1793 54.7518L41.9396 53.6072Z" fill="#3A5A40"/>
<path fill-rule="evenodd" clip-rule="evenodd" d="M31.4518 44.6989L34.6686 46.6823L32.5594 43.5464L31.4518 44.6989Z" fill="#3A5A40"/>
<path fill-rule="evenodd" clip-rule="evenodd" d="M27.2654 61.0868C28.485 59.8855 29.5553 58.7079 30.416 57.6265C32.1463 55.453 33.0648 53.8096 33.0648 53.8096C33.0648 53.8096 31.8085 55.1725 29.7512 56.996C28.7471 57.8859 27.5738 58.8893 26.2308 59.8681L27.2654 61.0868V61.0868Z" fill="#3A5A40"/>
<path fill-rule="evenodd" clip-rule="evenodd" d="M31.4042 66.1819C31.5558 66.3515 31.7725 66.4485 32.0001 66.4485C32.2276 66.4485 32.4443 66.3515 32.5959 66.1819C38.7597 59.2886 45.6069 55.2559 50.0954 50.9592C53.2659 47.9246 55.2934 44.7505 55.2934 40.4932C55.2934 32.5752 49.162 27.9829 43.2687 27.9829C38.2152 27.9829 33.9236 29.7682 32.0001 33.1517C30.0765 29.7682 25.7849 27.9829 20.7316 27.9829C14.8381 27.9829 8.70667 32.5752 8.70667 40.4932C8.70667 44.7505 10.7342 47.9246 13.9047 50.9592C18.3932 55.2559 25.2404 59.2886 31.4042 66.1819V66.1819ZM32.0001 64.4608C26.9849 59.0323 21.5953 55.3865 17.4 51.9129C13.2717 48.4948 10.3052 45.2884 10.3052 40.4932C10.3052 33.6066 15.6058 29.5814 20.7316 29.5814C25.8329 29.5814 30.1528 31.4847 31.2288 35.4472C31.3232 35.7954 31.6393 36.037 32.0001 36.037C32.3608 36.037 32.677 35.7954 32.7713 35.4472C33.8476 31.4847 38.1672 29.5814 43.2687 29.5814C48.3944 29.5814 53.6949 33.6066 53.6949 40.4932C53.6949 45.2884 50.7284 48.4948 46.6001 51.9129C42.4048 55.3865 37.0154 59.0323 32.0001 64.4608Z" fill="#3A5A40"/>
<path fill-rule="evenodd" clip-rule="evenodd" d="M41.2617 21.4655C39.7882 21.6554 38.3299 21.0178 37.4684 19.8074C36.0361 17.7947 34.0194 14.9602 34.0194 14.9602L29.9911 17.8266C29.9911 17.8266 32.008 20.6611 33.44 22.6737C34.3015 23.8842 34.4258 25.4709 33.7636 26.801C33.1015 28.131 33.2255 29.7179 34.087 30.9286C37.548 35.7929 46.4807 48.3463 49.9538 53.227C50.7328 54.3219 52.2519 54.5779 53.3467 53.7989C55.3309 52.387 58.3662 50.2271 60.3503 48.8152C61.4452 48.0362 61.7012 46.5171 60.9222 45.4222C57.4492 40.5415 48.5165 27.9881 45.0555 23.1238C44.194 21.9131 42.7352 21.2758 41.2617 21.4655Z" fill="#D97706"/>
<path fill-rule="evenodd" clip-rule="evenodd" d="M41.1598 20.6728C39.9788 20.825 38.81 20.3142 38.1199 19.3438C36.6876 17.3312 34.6707 14.4969 34.6707 14.4969C34.4149 14.1371 33.9158 14.0531 33.556 14.3089L29.5279 17.1753C29.1681 17.4314 29.0841 17.9304 29.3399 18.29C29.3399 18.29 31.3569 21.1245 32.7891 23.1371C33.4793 24.1072 33.579 25.3787 33.0483 26.4447C33.0483 26.4449 33.0481 26.4449 33.0481 26.4451C32.2544 28.0393 32.4032 29.9409 33.4359 31.3919C36.8971 36.2562 45.8296 48.8097 49.3026 53.6906C50.3376 55.1451 52.3558 55.4851 53.8102 54.4501C55.7944 53.0383 58.8299 50.8783 60.8141 49.4666C62.2685 48.4315 62.6085 46.4134 61.5735 44.9589C58.1007 40.0783 49.168 27.5246 45.7067 22.6605C44.6744 21.2095 42.9265 20.4452 41.16 20.6728H41.1598V20.6728ZM41.3639 22.2582C41.3642 22.2582 41.3642 22.2582 41.3644 22.2582C42.5452 22.1062 43.7139 22.6171 44.4043 23.5872L60.2711 45.8856C60.7943 46.6209 60.6222 47.641 59.8872 48.1639C57.903 49.5759 54.8677 51.7357 52.8833 53.1476C52.1483 53.6708 51.1282 53.4988 50.605 52.7637L34.7383 30.4653C34.0481 29.4949 33.9484 28.2234 34.4791 27.1575C34.4791 27.1575 34.4791 27.1573 34.4793 27.1573C35.273 25.5631 35.1239 23.6613 34.0915 22.2102L31.1059 18.0144L33.8316 16.0749L36.8172 20.2707C37.8498 21.7218 39.5977 22.4858 41.3639 22.2582V22.2582Z" fill="#3A5A40"/>
<path fill-rule="evenodd" clip-rule="evenodd" d="M51.694 28.5238C50.8959 27.4024 49.3396 27.1401 48.2182 27.9381C45.4669 29.896 40.8947 33.1494 40.8947 33.1494C40.8947 33.1494 46.0094 40.3374 47.9619 43.0814C48.4294 43.7385 49.1862 44.1288 49.9924 44.1288C51.4509 44.1288 53.7845 44.1288 55.001 44.1288C55.5191 44.1288 56.0239 43.9676 56.446 43.6671C56.9593 43.302 57.7052 42.7713 58.414 42.267C59.5356 41.4689 59.7977 39.9127 58.9997 38.7912C57.0599 36.0651 53.6337 31.25 51.694 28.5238V28.5238Z" fill="#D9CAB3"/>
<path fill-rule="evenodd" clip-rule="evenodd" d="M52.345 28.0605C51.2911 26.5793 49.236 26.233 47.7548 27.2868C45.0035 29.2447 40.431 32.4982 40.431 32.4982C40.0714 32.7542 39.9872 33.2532 40.2433 33.6128C40.2433 33.6128 45.358 40.801 47.3105 43.545C47.9281 44.4128 48.9274 44.9283 49.9923 44.9283C51.4509 44.9283 53.7844 44.9283 55.0009 44.9283C55.6851 44.9283 56.3521 44.715 56.9093 44.3185C57.4226 43.9534 58.1685 43.4227 58.8775 42.9181C60.3585 41.8643 60.705 39.8092 59.6509 38.328L52.345 28.0605V28.0605ZM51.0426 28.9872L58.3485 39.2546C58.8905 40.0165 58.7124 41.0737 57.9506 41.6157L55.9826 43.0161C55.6959 43.22 55.3528 43.3295 55.0009 43.3295H49.9926C49.4445 43.3295 48.9308 43.0646 48.6129 42.6181L42.0092 33.3372L48.6815 28.5895C49.4433 28.0473 50.5003 28.2253 51.0426 28.9872V28.9872Z" fill="#3A5A40"/>
<path fill-rule="evenodd" clip-rule="evenodd" d="M18.3595 53.7173C25.9104 48.8615 32.0054 44.1224 32.0054 44.1224L31.9999 35.2375L42.5173 27.9263C45.1173 31.1373 44.6218 33.7346 42.6049 35.9318C40.5877 38.1288 38.3043 40.6158 38.3043 40.6158" fill="#D9CAB3"/>
<path fill-rule="evenodd" clip-rule="evenodd" d="M18.7919 54.3897C21.3344 52.7664 23.7134 51.1561 25.7528 49.7308C29.8108 46.8948 32.5271 44.7934 32.5271 44.7934C32.7344 44.6322 32.8555 44.3846 32.8553 44.1221L32.8657 35.6906L42.3312 29.105C43.0479 30.1308 43.4055 31.078 43.4502 31.9709C43.5134 33.2313 42.947 34.3539 42.0136 35.389C41.7404 35.708 41.4547 36.026 41.1861 36.3557C40.9125 36.6916 40.6504 37.0278 40.4042 37.3642C39.9885 37.9332 39.6233 38.4677 39.3116 38.9506C38.6713 39.9417 38.3045 40.6159 38.3045 40.6159C38.3045 40.6159 38.945 40.1931 39.8779 39.4706C40.3326 39.1188 40.834 38.7095 41.3654 38.2467C41.6796 37.9728 41.9924 37.6829 42.3037 37.3815C42.6092 37.0859 42.9017 36.7741 43.1963 36.4749C44.4719 35.11 45.1954 33.5882 45.1329 31.8975C45.0822 30.5256 44.5011 29.0222 43.1864 27.3846C42.9026 27.034 42.3963 26.9621 42.0259 27.2196L31.5058 34.5265C31.2727 34.6884 31.1337 34.9543 31.1339 35.2381L31.1549 43.7065C30.3241 44.3458 27.9799 46.1296 24.8022 48.3792C22.7877 49.8051 20.4389 51.4186 17.9272 53.0453L18.7919 54.3897V54.3897Z" fill="#3A5A40"/>
<path fill-rule="evenodd" clip-rule="evenodd" d="M26.7467 3.78814C29.7251 3.1151 32.9523 4.23603 34.8305 6.87872C37.1696 10.1703 36.5909 14.662 33.6164 17.2666L32.9897 17.7613C29.4042 20.4201 26.0619 21.7739 18.871 21.7739C12.3568 21.7739 3.54626 17.7516 3.54626 6.89658C6.02703 12.0374 9.57033 12.0019 12.0651 12.0019C17.0146 12.0019 19.6657 9.04577 22.3743 6.53315C22.8127 5.97329 23.34 5.47014 23.9479 5.03817C24.2713 4.80844 24.6062 4.60669 24.9542 4.44139L25.0116 4.40157C25.5959 4.02825 26.1767 3.83158 26.7467 3.78814V3.78814Z" fill="#D9CAB3"/>
<path fill-rule="evenodd" clip-rule="evenodd" d="M26.9734 9.2957C24.2467 11.3165 24.7581 15.952 18.3595 15.952C20.9042 18.4967 27.513 20.1136 32.6876 16.6588C35.1807 14.9945 29.7001 7.27489 26.9734 9.2957Z" fill="#D9CAB3"/>
<path fill-rule="evenodd" clip-rule="evenodd" d="M26.9738 9.29564C29.0721 7.80453 31.9863 8.2973 33.4776 10.3956C34.9687 12.4941 34.4759 15.4083 32.3774 16.8994C30.2792 18.3905 27.365 17.8977 25.8739 15.7994C24.3825 13.7012 24.8755 10.7868 26.9738 9.29564Z" fill="#E1D8C0"/>
</svg>
