<svg width="452" height="384" viewBox="0 0 452 384" fill="none" xmlns="http://www.w3.org/2000/svg">
<path opacity="0.5" d="M230.393 383.197C352.624 383.197 451.711 369.455 451.711 352.504C451.711 335.553 352.624 321.811 230.393 321.811C108.162 321.811 9.07501 335.553 9.07501 352.504C9.07501 369.455 108.162 383.197 230.393 383.197Z" fill="#F5F5F5"/>
<path d="M309.8 333.324H176.463L189.304 245.153H296.959L309.8 333.324Z" fill="#D9CAB3"/>
<path d="M408.915 260.698H77.348C68.924 260.698 62.095 253.869 62.095 245.445V36.563C62.095 28.139 68.924 21.31 77.348 21.31H408.915C417.339 21.31 424.168 28.139 424.168 36.563V245.445C424.168 253.869 417.339 260.698 408.915 260.698Z" fill="#E1D8C0"/>
<path d="M400.129 235.583H86.134C77.71 235.583 70.881 228.754 70.881 220.33V43.77C70.881 35.346 77.71 28.517 86.134 28.517H400.13C408.554 28.517 415.383 35.346 415.383 43.77V220.33C415.383 228.754 408.554 235.583 400.129 235.583Z" fill="#F1F1DE"/>
<path d="M338.061 339.744H148.201V330.572C148.201 323.48 153.95 317.731 161.042 317.731H325.22C332.312 317.731 338.061 323.48 338.061 330.572V339.744Z" fill="#E1D8C0"/>
<path d="M82.113 235.583H397.782" stroke="#262626" stroke-miterlimit="10" stroke-linecap="round" stroke-linejoin="round"/>
<path d="M156.559 335.158V330.343C156.559 327.43 158.92 325.069 161.833 325.069H304.228" stroke="#262626" stroke-miterlimit="10" stroke-linecap="round" stroke-linejoin="round"/>
<path d="M289.094 267.744L294.138 306.267" stroke="#262626" stroke-miterlimit="10" stroke-linecap="round" stroke-linejoin="round"/>
<path d="M239.947 256.307C244.027 256.307 247.334 253 247.334 248.92C247.334 244.84 244.027 241.533 239.947 241.533C235.867 241.533 232.56 244.84 232.56 248.92C232.56 253 235.867 256.307 239.947 256.307Z" fill="white"/>
<path d="M345.043 42.572H384.253C391.725 42.572 397.782 48.629 397.782 56.101V137.572" stroke="white" stroke-miterlimit="10" stroke-linecap="round" stroke-linejoin="round"/>
<path d="M374.966 68.38C377.231 62.932 379.47 58.717 381.684 55.738C383.897 52.759 386.779 50.383 390.333 48.611C392.41 47.525 394.573 46.746 396.829 46.275C399.081 45.805 401.225 45.206 403.261 44.481C405.293 43.757 407.164 42.773 408.872 41.533C410.579 40.293 411.989 38.335 413.103 35.656C414.983 31.132 415.052 27.449 413.307 24.612C411.562 21.775 408.98 19.645 405.564 18.225C400.667 16.19 396.73 16.152 393.752 18.108C390.771 20.065 388.09 23.256 385.71 27.682L367.84 20.254C369.721 15.73 372.167 11.926 375.181 8.84598C378.193 5.76698 381.6 3.49998 385.4 2.04598C389.198 0.593981 393.302 -0.030015 397.712 0.177985C402.118 0.384985 406.632 1.44899 411.251 3.36899C421.225 7.51499 428.252 12.82 432.337 19.283C436.418 25.747 436.561 33.549 432.76 42.692C431.531 45.649 430.155 48.108 428.635 50.076C427.112 52.042 425.376 53.676 423.428 54.979C421.478 56.28 419.299 57.352 416.893 58.193C414.484 59.034 411.828 59.824 408.921 60.565C406.235 61.291 403.992 62.065 402.189 62.884C400.385 63.706 398.851 64.721 397.593 65.929C396.331 67.138 395.272 68.514 394.417 70.051C393.559 71.591 392.709 73.378 391.866 75.408L374.966 68.38ZM363.298 94.887L370.842 76.739L389.543 84.513L381.999 102.661L363.298 94.887Z" fill="#556B2F"/>
<path d="M265.994 95.616V80.796C265.994 75.935 262.053 71.994 257.192 71.994H171.164C166.303 71.994 162.362 75.935 162.362 80.796V95.616V194.348C162.362 199.209 166.303 203.15 171.164 203.15H308.731C313.592 203.15 317.533 199.209 317.533 194.348V104.418C317.533 99.557 313.592 95.616 308.731 95.616H265.994Z" fill="#F5F5F5"/>
<path d="M257.279 116.316L239.947 133.648L222.616 116.317L212.157 126.775L229.488 144.107L212.157 161.439L222.616 171.897L239.947 154.566L257.279 171.897L267.738 161.439L250.406 144.107L267.738 126.775L257.279 116.316Z" fill="#D6D6D6"/>
<path d="M52.157 338.889V327.478H31.143V358.857L78.591 359.618V353.913L52.157 338.889Z" fill="#F7A99C"/>
<path d="M80.271 359.618V356.913C80.271 354.147 78.754 351.605 76.32 350.291L56.309 339.491C50.31 341.13 45.674 340.9 42.506 340.363C37.245 339.47 32.217 337.08 30.525 339.079C30.041 339.651 29.983 340.401 30.002 340.917V357.51C30.002 358.674 30.946 359.618 32.11 359.618H80.271Z" fill="#AEC6CF"/>
<path d="M80.271 357.811H30.001" stroke="#556B2F" stroke-width="0.733" stroke-miterlimit="10" stroke-linecap="round" stroke-linejoin="round"/>
<path d="M69.195 346.673L66.379 350.395" stroke="#556B2F" stroke-width="0.733" stroke-miterlimit="10" stroke-linecap="round" stroke-linejoin="round"/>
<path d="M67.132 345.508L64.316 349.23" stroke="#556B2F" stroke-width="0.733" stroke-miterlimit="10" stroke-linecap="round" stroke-linejoin="round"/>
<path d="M64.977 344.429L62.16 348.15" stroke="#556B2F" stroke-width="0.733" stroke-miterlimit="10" stroke-linecap="round" stroke-linejoin="round"/>
<path d="M61.803 342.456C58.393 343.757 52.765 345.425 45.66 345.387C38.805 345.35 33.364 343.739 30.002 342.456" stroke="#556B2F" stroke-width="0.733" stroke-miterlimit="10" stroke-linecap="round" stroke-linejoin="round"/>
<path d="M112.062 338.889V327.478H91.048V358.857L138.496 359.618V353.913L112.062 338.889Z" fill="#F7A99C"/>
<path d="M140.176 359.618V356.913C140.176 354.147 138.659 351.605 136.225 350.291L116.214 339.491C110.215 341.13 105.579 340.9 102.411 340.363C97.15 339.47 92.122 337.08 90.43 339.079C89.946 339.651 89.888 340.401 89.907 340.917V357.51C89.907 358.674 90.851 359.618 92.015 359.618H140.176Z" fill="#AEC6CF"/>
<path d="M140.176 357.811H89.907" stroke="#556B2F" stroke-width="0.733" stroke-miterlimit="10" stroke-linecap="round" stroke-linejoin="round"/>
<path d="M129.1 346.673L126.284 350.395" stroke="#556B2F" stroke-width="0.733" stroke-miterlimit="10" stroke-linecap="round" stroke-linejoin="round"/>
<path d="M127.037 345.508L124.221 349.23" stroke="#556B2F" stroke-width="0.733" stroke-miterlimit="10" stroke-linecap="round" stroke-linejoin="round"/>
<path d="M124.882 344.429L122.066 348.15" stroke="#556B2F" stroke-width="0.733" stroke-miterlimit="10" stroke-linecap="round" stroke-linejoin="round"/>
<path d="M121.708 342.456C118.298 343.757 112.67 345.425 105.565 345.387C98.711 345.35 93.269 343.739 89.907 342.456" stroke="#556B2F" stroke-width="0.733" stroke-miterlimit="10" stroke-linecap="round" stroke-linejoin="round"/>
<path d="M99.986 176.384C99.986 176.384 117.292 231.345 119.954 238.952C122.616 246.559 125.089 257.209 124.518 266.527C123.947 275.846 115.009 333.278 115.009 333.278H88.955C88.955 333.278 87.115 272.612 86.228 267.858C85.341 263.104 77.734 236.211 77.734 236.211C77.734 236.211 75.262 267.668 73.17 276.035C71.078 284.403 54.343 334.229 54.343 334.229H30.001L40.271 176.384H99.986Z" fill="#556B2F"/>
<path d="M139.705 142.88C139.705 142.88 147.968 135.87 150.059 131.284C151.849 127.359 154.351 120.463 155.035 118.557C155.138 118.269 155.44 118.11 155.737 118.18L156.232 118.297C157.765 118.66 158.712 120.2 158.344 121.732L157.519 125.17L166.25 119.436C166.999 118.944 168.008 119.186 168.452 119.965C168.844 120.652 168.657 121.524 168.018 121.989L162.259 126.189L171.826 121.697C172.567 121.349 173.45 121.629 173.856 122.34L173.868 122.361C174.297 123.114 174.035 124.072 173.282 124.501L173.389 124.47C174.22 124.231 175.101 124.634 175.463 125.418C175.883 126.326 175.457 127.4 174.53 127.775L173.921 128.021C174.715 127.773 175.549 128.268 175.711 129.084C175.948 130.275 175.374 131.478 174.297 132.039C171.722 133.379 170.051 133.732 167.604 135.564C165.667 137.013 166.345 137.936 164.279 140.579C161.763 143.798 159.62 143.889 155.286 147.075C153.64 148.285 151.367 150.171 148.965 152.978L139.705 142.88Z" fill="#F7A99C"/>
<path d="M168.591 120.31C168.591 120.31 169.03 121.2 168.196 121.834C167.363 122.468 160.857 127.284 160.857 127.284" stroke="#262626" stroke-width="0.4147" stroke-miterlimit="10" stroke-linecap="round" stroke-linejoin="round"/>
<path d="M173.282 124.501L164.324 128.659" stroke="#262626" stroke-width="0.4147" stroke-miterlimit="10" stroke-linecap="round" stroke-linejoin="round"/>
<path d="M174.204 127.967L165.198 132.112" stroke="#262626" stroke-width="0.4147" stroke-miterlimit="10" stroke-linecap="round" stroke-linejoin="round"/>
<path d="M156.858 118.529C156.858 118.529 158.432 119.525 158.388 120.629C158.344 121.733 156.756 128.825 156.756 128.825" stroke="#262626" stroke-width="0.4147" stroke-miterlimit="10" stroke-linecap="round" stroke-linejoin="round"/>
<path d="M88.956 333.279C88.956 333.279 86.598 271.075 86.414 269.467C86.23 267.859 77.365 234.935 77.365 234.935L78.935 220.383C78.935 220.383 96.82 264.409 96.82 267.313C96.82 270.218 98.807 333.279 98.807 333.279H88.956Z" fill="#A3B18A"/>
<path d="M74.186 272.228L80.542 203.485" stroke="#262626" stroke-width="0.4147" stroke-miterlimit="10" stroke-linecap="round" stroke-linejoin="round"/>
<path d="M116.011 328.001H88.755L88.956 333.279H115.01L116.011 328.001Z" fill="#262626"/>
<path d="M55.923 329.515H30.308L30.001 334.23H54.344L55.923 329.515Z" fill="#262626"/>
<path d="M117.597 244.387C121.046 255.244 121.593 267.008 119.165 278.138" stroke="white" stroke-width="0.4147" stroke-miterlimit="10" stroke-linecap="round" stroke-linejoin="round"/>
<path d="M146.574 135.488C146.574 135.488 142.162 138.885 137.136 139.767C131.247 140.801 126.14 137.313 124.769 136.377C121.035 133.827 119.656 130.806 117.187 127.271C109.873 116.801 105.33 110.297 98.97 106.614C95.683 104.71 90.186 102.561 81.52 103.226C79.576 102.529 76.477 103.081 74.401 103.081C72.675 103.081 70.95 103.081 69.224 103.081C65.822 103.489 40.766 106.4 36.506 102.488C34.827 100.946 34.8 99.427 34.8 99.427C34.778 98.171 35.571 96.864 37.647 95.283C42.72 91.42 52.026 88.536 55.143 87.617L53.241 73.413C53.241 73.413 53.241 73.413 49.057 73.413C44.873 73.413 30.039 75.885 22.052 78.676C10.853 82.589 4.85301 85.445 1.89301 91.932C-1.81499 100.061 2.13501 108.798 3.16101 111.068C8.30301 122.441 19.705 127.044 26.592 129.824C32.666 132.276 38.072 133.261 41.83 133.699L38.597 185.427L98.053 188.66H106.982C107.666 180.756 104.246 156.198 104.689 148.176C112.28 158.74 124.854 164.075 136.791 161.781C150.006 159.242 156.652 148.466 157.734 146.647C153.122 137.548 146.574 135.488 146.574 135.488Z" fill="#3A5A40"/>
<path d="M72.703 131.741H72.13V107.053H75.875V128.569C75.875 130.321 74.455 131.741 72.703 131.741Z" fill="white"/>
<path d="M107.073 185.932C105.025 186.312 76.882 191.031 56.996 170.034C40.216 152.317 42.2 129.896 42.55 126.58C41.506 142.132 40.461 157.684 39.417 173.236H39.36L38.598 185.426L47.918 185.933L47.912 185.867C61.812 186.967 76.157 187.788 90.926 188.272C96.336 188.449 101.689 188.577 106.984 188.66C107.013 187.75 107.043 186.841 107.073 185.932Z" fill="#556B2F"/>
<path d="M91.307 84.393C92.326 79.163 92.167 75.075 91.871 72.462C91.646 70.474 91.3 68.969 90.244 67.538C90.021 67.236 88.267 64.93 85.257 64.328C81.657 63.607 80.748 66.222 75.627 66.856C71.211 67.402 70.341 65.649 67.371 66.908C64.127 68.283 62.526 71.494 62.04 72.469C61.828 72.895 60.771 75.073 60.664 78.125C60.579 80.542 61.131 82.36 61.35 83.104C62.27 86.235 63.353 90.997 64.677 98.61C65.368 98.584 66.06 98.559 66.751 98.533C74.937 93.818 83.122 89.105 91.307 84.393Z" fill="#262626"/>
<path d="M73.798 110.115C69.93 110.13 66.783 107.006 66.769 103.139L66.712 88.069L80.718 88.016L80.775 103.086C80.789 106.953 77.666 110.1 73.798 110.115Z" fill="#F7A99C"/>
<path d="M80.758 98.867L71.637 94.181C71.729 94.971 72.248 98.67 75.501 101.225C77.578 102.856 79.762 103.229 80.77 103.335L80.758 98.867Z" fill="#D97706"/>
<path d="M66.372 83.4C66.328 83.172 65.728 82.828 65.544 82.711C65.233 82.512 64.896 82.353 64.544 82.24C63.861 82.02 63.11 81.969 62.408 82.13C61.012 82.45 59.774 83.623 59.541 85.06C59.406 85.895 59.599 86.758 59.956 87.524C60.494 88.676 61.406 89.644 62.508 90.278C63.421 90.804 64.46 91.102 65.51 91.164C65.72 91.176 67.873 91.127 67.857 91.044C67.361 88.496 66.866 85.948 66.372 83.4Z" fill="#F7A99C"/>
<path d="M64.452 83.546C64.618 84.67 65.606 90.601 70.952 94.791C71.937 95.563 78.483 100.694 84.473 98.19C92.17 94.972 91.33 82.33 91.276 81.645C91.093 79.33 90.552 72.513 84.907 68.876C80.3 65.908 75.307 66.999 74.599 67.166C73.853 67.341 69.1 68.541 66.191 73.201C63.55 77.43 64.181 81.706 64.452 83.546Z" fill="#F7A99C"/>
<path d="M86.907 81.654C87.031 82.641 87.792 83.358 88.607 83.256C89.422 83.154 89.982 82.271 89.858 81.284C89.734 80.297 88.973 79.58 88.158 79.682C87.343 79.784 86.783 80.667 86.907 81.654Z" fill="#262626"/>
<path d="M78.013 82.771C78.137 83.758 78.898 84.475 79.713 84.373C80.528 84.271 81.088 83.388 80.964 82.401C80.84 81.414 80.079 80.697 79.264 80.799C78.45 80.901 77.889 81.784 78.013 82.771Z" fill="#262626"/>
<path d="M84.222 83.131L85.585 84.973C85.836 85.311 85.742 85.792 85.382 86.011L84.13 86.773" stroke="#262626" stroke-width="0.733" stroke-miterlimit="10" stroke-linecap="round" stroke-linejoin="round"/>
<path d="M75.03 87.42C75.169 88.527 76.1801 89.313 77.2871 89.173C78.3941 89.034 79.1801 88.023 79.0401 86.916C78.9011 85.809 77.89 85.023 76.783 85.163C75.676 85.302 74.891 86.313 75.03 87.42Z" fill="#D97706"/>
<path d="M65.432 88.464C65.439 88.242 65.457 86.738 64.251 85.653C63.306 84.803 62.206 84.747 61.906 84.742" stroke="#262626" stroke-width="0.733" stroke-miterlimit="10" stroke-linecap="round" stroke-linejoin="round"/>
<path d="M64.3681 85.951C64.3011 85.94 63.4921 85.828 62.9271 86.44C62.4621 86.943 62.5051 87.565 62.5141 87.668" stroke="#262626" stroke-width="0.733" stroke-miterlimit="10" stroke-linecap="round" stroke-linejoin="round"/>
<path d="M64.275 82.165C64.275 82.165 65.27 82.253 66.02 82.998C66.77 83.742 67.036 85.017 67.036 85.017C68.953 84.784 73.344 83.975 77.327 80.518C79.486 78.644 80.804 76.618 81.581 75.157C82.307 75.81 83.546 76.791 85.299 77.547C87.586 78.533 90.443 79.005 90.822 78.237C90.892 78.095 90.815 77.683 90.659 76.86C90.603 76.562 90.544 76.121 90.399 75.699C90.116 74.873 89.748 74.076 89.309 73.321C88.429 71.811 87.258 70.47 85.88 69.395C84.984 68.697 84.001 68.111 82.955 67.666C79.635 66.254 75.025 66.253 71.057 68.369C71.057 68.369 66.627 70.732 64.674 75.356C64.003 76.945 63.834 78.534 63.792 79.085C63.708 80.176 63.831 80.889 63.997 81.437C64.091 81.747 64.196 81.996 64.275 82.165Z" fill="#262626"/>
<path d="M90.227 84.224C90.61 84.176 90.979 84.244 91.307 84.393C91.268 85.478 91.164 86.794 90.925 88.19C90.86 88.205 90.798 88.226 90.731 88.235C89.624 88.374 88.613 87.589 88.474 86.482C88.335 85.375 89.119 84.363 90.227 84.224Z" fill="#D97706"/>
<path d="M75.397 67.423C74.739 67.167 73.775 66.818 72.588 66.477C69.986 65.731 68.685 65.358 67.501 65.51C64.035 65.955 62.044 70.523 61.209 72.439C60.577 73.889 59.543 76.35 60.091 79.433C60.335 80.805 60.818 81.878 61.202 82.587" stroke="#262626" stroke-width="0.25" stroke-miterlimit="10" stroke-linecap="round" stroke-linejoin="round"/>
<path d="M75.397 67.011C76.569 66.499 77.822 66.084 78.951 65.497C80.136 64.881 81.171 64.08 82.44 63.607C83.773 63.11 85.261 62.911 86.622 63.324C87.795 63.68 88.798 64.464 89.626 65.368C90.741 66.586 91.59 68.056 92.032 69.647C92.884 72.713 92.123 75.908 91.621 78.964" stroke="#262626" stroke-width="0.25" stroke-miterlimit="10" stroke-linecap="round" stroke-linejoin="round"/>
<path d="M85.726 90.992C85.726 91.988 84.756 92.795 83.56 92.795C82.363 92.795 81.393 91.988 81.393 90.992C81.393 89.996 82.363 89.189 83.56 89.189C84.756 89.19 85.726 89.997 85.726 90.992Z" fill="white"/>
<path d="M53.568 75.85L57.569 73.413C57.569 73.413 58.386 69.888 59.497 69.143C60.608 68.398 66.512 66.105 66.512 66.105L67.372 66.908C67.372 66.908 62.752 71.128 61.795 73.002C60.837 74.876 60.657 80.093 60.657 80.093L56.137 85.937L55.031 86.774L53.568 75.85Z" fill="#F7A99C"/>
<path d="M42.55 128.825L40.446 155.858" stroke="#262626" stroke-width="0.4147" stroke-miterlimit="10" stroke-linecap="round" stroke-linejoin="round"/>
<path d="M103.658 131.035L105.271 160.862" stroke="#262626" stroke-width="0.4147" stroke-miterlimit="10" stroke-linecap="round" stroke-linejoin="round"/>
<path d="M11.289 88.464C10.453 89.129 6.12899 92.706 5.42899 99.025C4.66699 105.909 8.80699 110.621 9.45399 111.333" stroke="white" stroke-width="0.4147" stroke-miterlimit="10" stroke-linecap="round" stroke-linejoin="round"/>
<path d="M114.015 150.162C115.127 151.397 119.451 155.904 126.717 156.886C133.608 157.818 138.749 154.986 140.231 154.098" stroke="white" stroke-width="0.4147" stroke-miterlimit="10" stroke-linecap="round" stroke-linejoin="round"/>
<path d="M302.939 173.845L312.214 168.887L325.972 171.409L332.851 164.071L349.131 168.428L358.189 156.046L374.363 165.96L368.86 130.997L347.518 116.054L298.466 123.774C296.629 124.063 295.375 125.786 295.664 127.623L302.939 173.845Z" fill="#F5F5F5"/>
<path d="M352.503 133.571L368.86 130.997L347.518 116.054L349.987 131.739C350.175 132.94 351.302 133.76 352.503 133.571Z" fill="#D6D6D6"/>
<path d="M347.518 116.053L349.987 131.738C350.176 132.939 351.303 133.759 352.504 133.57L368.861 130.996" stroke="#262626" stroke-width="0.274" stroke-miterlimit="10" stroke-linecap="round" stroke-linejoin="round"/>
<path d="M309.551 219.752C309.84 221.589 311.563 222.843 313.4 222.554L377.657 212.441C379.494 212.152 380.748 210.429 380.459 208.592L374.363 169.858L358.189 159.944L349.131 172.326L332.851 167.969L325.972 175.307L312.214 172.785L302.939 177.743L309.551 219.752Z" fill="#F5F5F5"/>
<path d="M302.952 173.845L312.227 168.887L325.985 171.409L332.864 164.071L349.144 168.428L358.202 156.046L374.376 165.96L368.873 130.997L347.531 116.054L298.479 123.774C296.642 124.063 295.388 125.786 295.677 127.623L302.952 173.845Z" stroke="#262626" stroke-width="0.274" stroke-miterlimit="10" stroke-linecap="round" stroke-linejoin="round"/>
<path d="M309.564 219.752C309.853 221.589 311.576 222.843 313.413 222.554L377.67 212.441C379.507 212.152 380.761 210.429 380.472 208.592L374.376 169.858L358.202 159.944L349.144 172.326L332.864 167.969L325.985 175.307L312.227 172.785L302.952 177.743L309.564 219.752Z" stroke="#262626" stroke-width="0.274" stroke-miterlimit="10" stroke-linecap="round" stroke-linejoin="round"/>
<path d="M54.361 65.097L52.739 66.645L38.391 53.69L42.521 49.751L54.361 65.097Z" fill="#D97706"/>
<path d="M57.906 62.441L55.701 62.849L50.78 44.155L56.392 43.118L57.906 62.441Z" fill="#D97706"/>
<path d="M50.26 68.623L50.076 70.858L30.745 70.712L31.214 65.024L50.26 68.623Z" fill="#D97706"/>
<path d="M281.209 352.06C276.359 347.293 276.291 339.497 281.058 334.647L337.751 276.96L355.315 294.222L298.622 351.908C293.855 356.759 286.059 356.827 281.209 352.06Z" fill="#D97706"/>
<path opacity="0.2" d="M382.367 299.036C409.865 298.973 432.106 276.63 432.043 249.131C431.979 221.633 409.636 199.393 382.138 199.456C354.64 199.519 332.399 221.862 332.463 249.36C332.526 276.859 354.869 299.099 382.367 299.036Z" fill="#FDFDF6"/>
<path opacity="0.5" d="M335.646 266.806C337.325 271.273 339.665 275.545 342.67 279.47L432.02 248.565C431.953 243.734 431.184 238.914 429.721 234.266L335.646 266.806Z" fill="white"/>
<path opacity="0.5" d="M332.569 252.549C332.755 255.374 333.182 258.184 333.848 260.949L427.521 228.549C426.353 225.994 424.962 223.519 423.34 221.153L332.569 252.549Z" fill="white"/>
<path d="M422.518 208.275C399.884 186.03 363.502 186.346 341.257 208.981C319.012 231.615 319.328 267.997 341.963 290.242C364.597 312.487 400.979 312.171 423.224 289.536C445.469 266.901 445.153 230.519 422.518 208.275ZM349.071 283.009C330.431 264.69 330.171 234.729 348.49 216.088C366.809 197.448 396.77 197.188 415.41 215.507C434.05 233.826 434.31 263.787 415.991 282.428C397.673 301.068 367.711 301.328 349.071 283.009Z" fill="#D97706"/>
<path d="M341.731 299.529L296.903 345.142" stroke="white" stroke-miterlimit="10" stroke-linecap="round" stroke-linejoin="round"/>
<path d="M386.361 195.925C372.237 194.5 357.594 199.375 347.142 208.981C336.69 218.588 330.601 232.769 330.833 246.963" stroke="white" stroke-miterlimit="10" stroke-linecap="round" stroke-linejoin="round"/>
</svg>
