<svg width="16" height="17" viewBox="0 0 16 17" fill="none" xmlns="http://www.w3.org/2000/svg">
<path fill-rule="evenodd" clip-rule="evenodd" d="M2.13314 3.60494C2.84085 2.89745 3.80058 2.5 4.80128 2.5C5.80198 2.5 6.76171 2.89745 7.46942 3.60494C7.60779 3.74282 7.78592 3.9144 8.0038 4.1197C8.22118 3.9144 8.39905 3.74282 8.53743 3.60494C9.24217 2.90351 10.1953 2.50854 11.1896 2.50588C12.1839 2.50322 13.1391 2.89307 13.8476 3.59072C14.5561 4.28837 14.9606 5.23744 14.9733 6.23168C14.9859 7.22593 14.6057 8.18499 13.9152 8.90046L8.53667 14.279C8.39513 14.4205 8.20319 14.5 8.00305 14.5C7.80291 14.5 7.61096 14.4205 7.46942 14.279L2.09087 8.90122C1.40103 8.18977 1.01872 7.23553 1.02648 6.24458C1.03425 5.25363 1.43223 4.3055 2.13314 3.60494Z" fill="#FF1D4E"/>
</svg>
