<svg width="16" height="17" viewBox="0 0 16 17" fill="none" xmlns="http://www.w3.org/2000/svg">
<path fill-rule="evenodd" clip-rule="evenodd" d="M13.2426 8.28068C13.7753 7.73957 14.0713 7.009 14.0653 6.24969C14.0594 5.49038 13.7521 4.76453 13.211 4.23181C12.943 3.96803 12.6258 3.75961 12.2773 3.61845C11.9288 3.47729 11.5559 3.40614 11.18 3.40908C10.4207 3.41501 9.6948 3.72234 9.16208 4.26345C9.01742 4.40811 8.83359 4.58566 8.61057 4.79612L7.99051 5.38002L7.37045 4.79612C7.14693 4.58516 6.96285 4.40761 6.81819 4.26345C6.28127 3.72654 5.55306 3.42491 4.79375 3.42491C4.03444 3.42491 3.30623 3.72654 2.76931 4.26345C1.66329 5.37023 1.65049 7.1596 2.72863 8.27164L7.99051 13.5335L13.2426 8.28068ZM2.12966 3.62455C2.47948 3.27464 2.89481 2.99707 3.35192 2.80769C3.80903 2.61832 4.29897 2.52084 4.79375 2.52084C5.28854 2.52084 5.77848 2.61832 6.23559 2.80769C6.6927 2.99707 7.10802 3.27464 7.45784 3.62455C7.59496 3.76218 7.77252 3.93345 7.99051 4.13838C8.20749 3.93345 8.38505 3.76193 8.52318 3.6238C9.22424 2.91194 10.1794 2.50774 11.1785 2.50011C12.1776 2.49248 13.1387 2.88205 13.8506 3.58311C14.5625 4.28418 14.9667 5.23932 14.9743 6.2384C14.9819 7.23749 14.5924 8.19869 13.8913 8.91054L8.52318 14.2794C8.38189 14.4207 8.19029 14.5 7.99051 14.5C7.79073 14.5 7.59913 14.4207 7.45784 14.2794L2.08822 8.90979C1.39963 8.19962 1.018 7.24709 1.02575 6.25793C1.0335 5.26876 1.43002 4.32234 2.12966 3.62305V3.62455Z" fill="#FF1D4E"/>
</svg>
