<svg width="24" height="24" viewBox="0 0 24 24" fill="none" xmlns="http://www.w3.org/2000/svg">
<path d="M3.5 7.7417C3.49625 7.44265 3.55326 7.1458 3.66797 6.86963C3.78266 6.59351 3.95258 6.34354 4.16699 6.13525L3.81934 5.77686L4.16797 6.13525L4.1748 6.12744C4.33132 5.9687 4.51108 5.83537 4.70703 5.73096L4.9082 5.63623L4.91211 5.63525C5.1225 5.54725 5.34422 5.49057 5.57031 5.46826L5.79785 5.45752H9.79395C9.84025 5.45753 9.88517 5.47549 9.91797 5.5083C9.9507 5.54105 9.96867 5.58594 9.96875 5.63232C9.96875 5.67867 9.95058 5.72355 9.91797 5.75635C9.88517 5.78916 9.84025 5.80809 9.79395 5.80811H5.79883V5.80713L5.78516 5.80811C5.53782 5.81484 5.29303 5.86111 5.06055 5.9458L5.03711 5.95557C4.6813 6.10588 4.37785 6.35782 4.16504 6.68018C3.97882 6.96243 3.86901 7.28781 3.8457 7.62354L3.84082 7.76611V18.1929C3.83781 18.4525 3.88691 18.71 3.98438 18.9507C4.05755 19.1313 4.15684 19.3 4.2793 19.4507L4.40918 19.5952L4.41211 19.5972C4.59493 19.7786 4.81138 19.9225 5.0498 20.02C5.28749 20.1172 5.54206 20.1656 5.79883 20.1646V20.1655H16.2363C16.4902 20.1655 16.7425 20.1174 16.9805 20.021L16.9814 20.022C17.223 19.9249 17.4412 19.7776 17.6221 19.5903L17.6211 19.5894C17.7984 19.4149 17.9383 19.207 18.0332 18.9771L18.0342 18.978C18.0357 18.9746 18.0366 18.9708 18.0381 18.9673C18.0389 18.9653 18.0402 18.9634 18.041 18.9614L18.04 18.9604C18.1174 18.7821 18.1681 18.5937 18.1865 18.4009L18.1943 18.2017V14.2114C18.1943 14.1649 18.2133 14.1202 18.2461 14.0874C18.2789 14.0546 18.3229 14.0357 18.3691 14.0356C18.4155 14.0356 18.4604 14.0546 18.4932 14.0874C18.5258 14.1202 18.5439 14.1651 18.5439 14.2114V18.2368C18.5452 18.5385 18.4864 18.8374 18.3701 19.1157C18.2828 19.3246 18.1641 19.5188 18.0195 19.6919L17.8662 19.8579L17.8623 19.8618C17.6517 20.0733 17.4023 20.2423 17.1289 20.3618C16.8456 20.4619 16.5462 20.5094 16.2461 20.4985L16.2363 20.4976H5.78711C5.48577 20.4987 5.18722 20.44 4.90918 20.3237C4.70033 20.2364 4.50604 20.1179 4.33301 19.9731L4.16797 19.8198L4.16504 19.8179L4.01367 19.6489C3.87111 19.4736 3.75448 19.278 3.66895 19.0679C3.58334 18.8576 3.53018 18.636 3.50977 18.4106L3.5 18.1851V7.7417Z" fill="#3A5A40" stroke="#3A5A40"/>
<path d="M20.8257 6.10979C20.7339 5.87802 20.5927 5.66912 20.4117 5.4977L18.4771 3.56239C18.3058 3.38141 18.0969 3.24009 17.8652 3.14833C17.5171 3.00158 17.133 2.96259 16.7624 3.0364C16.3919 3.11021 16.052 3.29342 15.7866 3.56239L14.2479 5.10163V5.14664L7.28327 12.1047C6.93165 12.4589 6.73433 12.9378 6.73438 13.4369V15.3902C6.73674 15.8932 6.93754 16.375 7.29309 16.7306C7.64864 17.0863 8.13019 17.2872 8.63301 17.2895H10.5856C10.8336 17.2899 11.0791 17.2407 11.3078 17.1448C11.5364 17.049 11.7437 16.9085 11.9174 16.7315L18.882 9.76437L20.4297 8.21612C20.6115 8.0451 20.7537 7.83626 20.8437 7.60403C20.9466 7.37317 20.9999 7.12321 20.9999 6.87041C20.9999 6.61762 20.9466 6.36765 20.8437 6.1368L20.8257 6.10979ZM19.5839 7.05494C19.5547 7.12295 19.5118 7.18423 19.4579 7.23497L18.3601 8.33314L15.6607 5.63272L16.7674 4.52554C16.8737 4.42269 17.0155 4.36467 17.1634 4.36352C17.2346 4.36471 17.305 4.38 17.3703 4.40853C17.4399 4.43793 17.4999 4.47994 17.5503 4.53455L19.4939 6.46985C19.5429 6.52272 19.5825 6.58362 19.6109 6.64988C19.6242 6.71824 19.6242 6.78854 19.6109 6.85691C19.6143 6.92403 19.6051 6.99119 19.5839 7.05494Z" fill="#3A5A40"/>
</svg>
