<svg width="24" height="24" viewBox="0 0 24 24" fill="none" xmlns="http://www.w3.org/2000/svg">
<path d="M4.26601 16.0602C5.11189 17.7709 6.48409 19.1651 8.18104 20.0382C9.86555 20.9036 11.7864 21.1957 13.6521 20.8702C15.5234 20.5409 17.2378 19.6147 18.5391 18.2302C19.8521 16.8322 20.6881 15.0541 20.9271 13.1512C21.1694 11.2439 20.8041 9.3088 19.8831 7.62113C18.9706 5.94631 17.5442 4.60893 15.8141 3.8061C14.0958 3.01026 12.1647 2.79679 10.3141 3.1981C8.46404 3.5991 6.94803 4.51111 5.69402 5.95312C5.54302 6.11312 4.95901 6.75913 4.47401 7.73413M7.50003 8.00013L3.89101 8.72014L3 5.00011M12.0001 9.00014V13.0002L15.0001 15.0002" stroke="#3A5A40" stroke-width="1.4" stroke-linecap="round" stroke-linejoin="round"/>
</svg>
