<svg width="24" height="24" viewBox="0 0 24 24" fill="none" xmlns="http://www.w3.org/2000/svg">
<path d="M12 3.5C16.6943 3.5 20.5 7.30569 20.5 12C20.5 16.6943 16.6943 20.5 12 20.5C7.30569 20.5 3.5 16.6943 3.5 12C3.5 7.30569 7.30569 3.5 12 3.5ZM10.3633 9.86328C10.0138 9.86338 9.67876 10.0029 9.43164 10.25C9.18453 10.4972 9.04595 10.8321 9.0459 11.1816C9.0459 11.5312 9.18443 11.8671 9.43164 12.1143C9.67874 12.3612 10.0139 12.4999 10.3633 12.5H10.6816V13.9541H10.3633C10.0138 13.9542 9.67876 14.0937 9.43164 14.3408C9.18452 14.588 9.04597 14.923 9.0459 15.2725C9.0459 15.6221 9.18443 15.9579 9.43164 16.2051C9.67875 16.4521 10.0139 16.5907 10.3633 16.5908H13.6367C13.9861 16.5907 14.3213 16.4521 14.5684 16.2051C14.8156 15.9579 14.9541 15.6221 14.9541 15.2725C14.954 14.923 14.8155 14.588 14.5684 14.3408C14.3212 14.0937 13.9862 13.9542 13.6367 13.9541H13.3184V11.1816C13.3183 10.8321 13.1788 10.4972 12.9316 10.25C12.6844 10.0028 12.3496 9.86328 12 9.86328H10.3633ZM11.5908 6.59082C11.285 6.59084 10.9904 6.69753 10.7559 6.88965L10.6592 6.97656C10.412 7.22377 10.2725 7.55958 10.2725 7.90918C10.2725 8.21497 10.3792 8.50963 10.5713 8.74414L10.6592 8.84082C10.9064 9.08801 11.2412 9.22752 11.5908 9.22754H12C12.3496 9.22754 12.6844 9.088 12.9316 8.84082C13.1788 8.59363 13.3183 8.25875 13.3184 7.90918C13.3184 7.55958 13.1788 7.22377 12.9316 6.97656C12.6845 6.72963 12.3494 6.59082 12 6.59082H11.5908Z" fill="#3A5A40" stroke="#3A5A40"/>
</svg>
