<svg width="24" height="24" viewBox="0 0 24 24" fill="none" xmlns="http://www.w3.org/2000/svg">
<path d="M9.30029 17.3H20.6997C20.8058 17.3 20.9079 17.3422 20.9829 17.4172C21.0579 17.4922 21.1001 17.5944 21.1001 17.7004C21.1 17.8063 21.0577 17.9078 20.9829 17.9827C20.9079 18.0577 20.8058 18.0999 20.6997 18.0999H9.30029L9.22119 18.092C9.14444 18.0766 9.07327 18.0388 9.01709 17.9827C8.94223 17.9078 8.90001 17.8063 8.8999 17.7004C8.8999 17.5944 8.94208 17.4923 9.01709 17.4172C9.0921 17.3422 9.19421 17.3 9.30029 17.3ZM3.30029 11.3H20.6997C20.8058 11.3 20.9079 11.3422 20.9829 11.4172C21.0579 11.4922 21.1001 11.5944 21.1001 11.7004C21.1 11.8063 21.0577 11.9078 20.9829 11.9827C20.9079 12.0577 20.8058 12.0999 20.6997 12.0999H3.30029C3.19421 12.0999 3.0921 12.0577 3.01709 11.9827C2.94223 11.9078 2.90001 11.8063 2.8999 11.7004C2.8999 11.5944 2.94208 11.4923 3.01709 11.4172C3.0921 11.3422 3.19421 11.3 3.30029 11.3ZM8.1001 5.30005H20.6997C20.8058 5.30005 20.9079 5.34222 20.9829 5.41724C21.0579 5.49224 21.1001 5.5944 21.1001 5.70044C21.1 5.80629 21.0577 5.90776 20.9829 5.98267C20.9079 6.05768 20.8058 6.09985 20.6997 6.09985H8.1001L8.02197 6.09204C7.94493 6.07672 7.87325 6.03903 7.81689 5.98267C7.74209 5.90776 7.69981 5.80629 7.69971 5.70044L7.70752 5.62134C7.72291 5.5446 7.76075 5.47342 7.81689 5.41724C7.87326 5.36087 7.94492 5.32317 8.02197 5.30786L8.1001 5.30005Z" fill="#3A5A40" stroke="#3A5A40"/>
</svg>
