<svg width="24" height="24" viewBox="0 0 24 24" fill="none" xmlns="http://www.w3.org/2000/svg">
<path d="M3 11.9995H15.6006ZM15.6006 11.9995L12.4505 9.29932ZM15.6006 11.9995L12.4505 14.6996Z" fill="#3A5A40"/>
<path d="M3 11.9995H15.6006M15.6006 11.9995L12.4505 9.29932M15.6006 11.9995L12.4505 14.6996" stroke="#3A5A40" stroke-width="1.5" stroke-linecap="round" stroke-linejoin="round"/>
<path d="M9.30127 7.50022C9.31207 5.54263 9.39937 4.48237 10.0906 3.79114C10.8817 3 12.1544 3 14.6997 3H15.5998C18.146 3 19.4187 3 20.2098 3.79114C21.0001 4.58138 21.0001 5.85494 21.0001 8.40027V15.6006C21.0001 18.146 21.0001 19.4195 20.2098 20.2098C19.4178 21.0009 18.146 21.0009 15.5998 21.0009H14.6997C12.1544 21.0009 10.8817 21.0009 10.0906 20.2098C9.39937 19.5185 9.31207 18.4583 9.30127 16.5007" stroke="#3A5A40" stroke-width="1.5" stroke-linecap="round"/>
</svg>
