<svg width="24" height="24" viewBox="0 0 24 24" fill="none" xmlns="http://www.w3.org/2000/svg">
<path d="M12.5 13C14.6392 13 16.5512 13.489 17.9111 14.2539C19.2867 15.0277 20 16.0184 20 17C20 18.2857 19.9732 19.1516 19.1846 19.7939C18.7709 20.1308 18.1072 20.4373 17.0254 20.6562C15.9458 20.8747 14.4826 21 12.5 21C10.5174 21 9.0542 20.8747 7.97461 20.6562C6.89277 20.4373 6.22912 20.1308 5.81543 19.7939C5.02682 19.1516 5 18.2857 5 17C5 16.0184 5.71325 15.0277 7.08887 14.2539C8.44877 13.489 10.3608 13 12.5 13ZM12.5 2C14.433 2 16 3.567 16 5.5C16 7.433 14.433 9 12.5 9C10.5671 8.99993 9 7.43296 9 5.5C9 3.56704 10.5671 2.00007 12.5 2Z" fill="#FDFDF6" stroke="#FDFDF6"/>
</svg>
