<svg width="24" height="24" viewBox="0 0 24 24" fill="none" xmlns="http://www.w3.org/2000/svg">
<path d="M12 5C12.1515 5 12.2971 5.05987 12.4043 5.16699C12.5114 5.27412 12.5713 5.41979 12.5713 5.57129V11.4287H18.4287C18.5802 11.4287 18.7259 11.4886 18.833 11.5957C18.9401 11.7029 19 11.8485 19 12C19 12.1515 18.9401 12.2971 18.833 12.4043C18.7259 12.5114 18.5802 12.5713 18.4287 12.5713H12.5713V18.4287C12.5713 18.5802 12.5114 18.7259 12.4043 18.833C12.2971 18.9401 12.1515 19 12 19C11.8485 19 11.7029 18.9401 11.5957 18.833C11.4886 18.7259 11.4287 18.5802 11.4287 18.4287V12.5713H5.57129C5.41979 12.5713 5.27412 12.5114 5.16699 12.4043C5.05987 12.2971 5 12.1515 5 12C5 11.8485 5.05987 11.7029 5.16699 11.5957C5.27412 11.4886 5.41979 11.4287 5.57129 11.4287H11.4287V5.57129C11.4287 5.41979 11.4886 5.27412 11.5957 5.16699C11.676 5.08671 11.778 5.03272 11.8877 5.01074L12 5Z" fill="#3A5A40" stroke="#3A5A40"/>
</svg>
