<svg width="16" height="17" viewBox="0 0 16 17" fill="none" xmlns="http://www.w3.org/2000/svg">
<path d="M11.6 14.4989C11.5022 14.4992 11.4076 14.4611 11.3342 14.3918L8 11.2155L4.66575 14.3918C4.60805 14.4467 4.53674 14.4826 4.46043 14.4951C4.38411 14.5076 4.30605 14.4961 4.23567 14.4622C4.16528 14.4282 4.10558 14.3731 4.06376 14.3036C4.02194 14.2341 3.9998 14.1531 4 14.0704V4.21413C4.00046 3.75966 4.16918 3.32396 4.46914 3.0026C4.7691 2.68125 5.1758 2.5005 5.6 2.5H10.4C10.8242 2.5005 11.2309 2.68125 11.5309 3.0026C11.8308 3.32396 11.9995 3.75966 12 4.21413V14.0704C12 14.184 11.9579 14.293 11.8828 14.3734C11.8078 14.4537 11.7061 14.4989 11.6 14.4989Z" fill="#D97706"/>
</svg>
